<?xml version="1.0" encoding="UTF-8" standalone="no"?>
<!-- Created with Inkscape (http://www.inkscape.org/) -->

<svg
   width="48"
   height="48"
   viewBox="0 0 48 48"
   version="1.1"
   id="svg5"
   inkscape:version="1.1.2 (0a00cf5339, 2022-02-04)"
   sodipodi:docname="drewbaccotablogo.svg"
   xmlns:inkscape="http://www.inkscape.org/namespaces/inkscape"
   xmlns:sodipodi="http://sodipodi.sourceforge.net/DTD/sodipodi-0.dtd"
   xmlns="http://www.w3.org/2000/svg"
   xmlns:svg="http://www.w3.org/2000/svg">
  <sodipodi:namedview
     id="namedview7"
     pagecolor="#ffffff"
     bordercolor="#666666"
     borderopacity="1.0"
     inkscape:pageshadow="2"
     inkscape:pageopacity="0.0"
     inkscape:pagecheckerboard="0"
     inkscape:document-units="px"
     showgrid="false"
     inkscape:zoom="2.1015625"
     inkscape:cx="-36.401487"
     inkscape:cy="81.843866"
     inkscape:window-width="3840"
     inkscape:window-height="995"
     inkscape:window-x="0"
     inkscape:window-y="56"
     inkscape:window-maximized="1"
     inkscape:current-layer="layer1" />
  <defs
     id="defs2">
    <clipPath
       clipPathUnits="userSpaceOnUse"
       id="clipPath91257">
      <path
         id="path91259"
         style="fill:#ff0000;fill-opacity:1;fill-rule:nonzero;stroke:none"
         d="m 136.68945,213.20703 v 238.71679 h 214.94337 c 0.0632,-0.99253 0.55584,-2.38285 1.50391,-4.19336 0.31623,-1.70488 0.70452,-3.52244 1.11914,-5.39649 -6.96353,3.9031 -4.67046,-0.24542 1.43359,-7.24414 0.28692,-5.76559 1.44726,-11.38111 4.14649,-17.18945 1.41386,-5.84644 4.69033,-11.24548 8.66797,-16.19727 0.47028,-4.23456 1.01236,-8.4911 1.61523,-12.77342 -12.76137,23.26533 -3.59719,-2.08833 3.64063,-20.87891 1.67405,-7.68832 3.55807,-14.24065 5.64648,-18.11523 0.0123,-0.0538 0.0247,-0.106 0.0371,-0.16016 0.13293,-2.83152 0.48225,-4.10298 0.78711,-5.69531 0.0149,-0.26829 -0.0509,-0.54322 0,-0.8086 0.13281,-0.69324 0.26937,-1.38803 0.40039,-2.08203 0.67941,-3.59878 1.36548,-7.20064 2.07422,-10.79687 0.37751,-3.28893 0.92792,-7.08795 1.54883,-9.06446 0.20681,-0.65823 0.45367,-1.30202 0.69531,-1.94726 0.19951,-1.52621 0.38647,-3.05401 0.60937,-4.57617 0.10824,-0.30668 0.31407,-0.98828 0.44727,-1.39063 0.21451,-3.47957 0.93157,-8.66627 2.30859,-10.82812 0.36373,-0.57104 0.78995,-1.09996 1.16993,-1.66016 0.203,-3.93361 0.93072,-7.57943 2.08398,-11.12695 0.081,-0.27606 0.25956,-0.77625 0.37305,-1.11328 0.4648,-1.32718 0.97714,-2.65359 1.54687,-3.97852 0.53407,-1.3638 0.70455,-1.93124 1.59961,-4.11523 0.40242,-0.98195 -0.54145,1.47483 -1.11328,2.98242 4.37862,-9.74595 11.27654,-19.94691 18.00195,-35.49414 23.26583,-18.95421 9.32458,-7.42527 4.75196,-3.97266 -0.3255,0.24577 0.52872,-0.62443 0.83789,-0.89062 3.93981,-3.39377 7.93459,-6.72297 11.90234,-10.08399 2.28918,-1.54952 4.47376,-3.26541 6.86719,-4.64843 0.6361,-0.3676 1.28669,-0.71238 1.92578,-1.07618 1.20379,-1.09786 2.40845,-2.1943 3.61328,-3.29101 2.22138,-1.65196 8.58261,-6.95266 6.66602,-4.95508 -2.66902,2.78183 -5.95848,4.90176 -8.85157,7.44727 2.82676,-1.57936 5.68248,-3.10718 8.6543,-4.38282 4.06802,-1.74617 16.29622,-6.67861 12.56836,-4.29101 -7.85523,5.03103 -16.66891,8.36342 -24.98633,12.59765 -4.58248,5.7106 -7.62352,13.13155 -9.76367,20.56446 5.09888,-0.41651 13.63309,1.02221 27.11914,2.64453 8.9846,0.53443 20.07214,1.37121 33.30273,1.72656 0.0993,-0.45864 0.21217,-0.88987 0.31446,-1.3457 0.50782,-4.36339 1.1646,-8.7197 1.9414,-13.33399 0.40929,-2.43122 1.2347,-4.78378 1.58204,-7.22461 0.18655,-1.31076 -0.89339,2.50095 -1.17383,3.79493 1.12676,-7.98089 -0.52974,-16.1016 -0.8125,-24.15235 z m 252.79494,87.71875 c -0.0383,0.74116 -0.0967,1.47162 -0.0957,2.23633 0.2137,-1.02827 0.44918,-2.13059 0.60352,-2.95703 -0.16782,0.24126 -0.34291,0.47752 -0.50781,0.7207 z m -0.0957,2.23633 c -0.036,0.17318 -0.0637,0.31865 -0.10156,0.49805 0.0537,-0.0217 0.0631,0.12615 -0.0312,0.67187 -0.3009,1.74039 -0.72432,3.45212 -1.19336,5.1543 0.43251,-1.05495 0.85182,-2.04605 1.46094,-3.28711 -0.0694,-1.02864 -0.13353,-2.05337 -0.13477,-3.03711 z m -0.10156,0.49805 c -0.27369,0.11043 -2.12511,6.2616 -3.28125,9.7539 -0.0729,1.18253 -0.13765,2.34784 -0.0801,2.86719 0.44095,-1.64733 0.85804,-3.30203 1.36328,-4.93164 0.10075,-0.32495 0.37975,-0.88722 0.53516,-1.28906 0.57716,-2.4305 1.09172,-4.64134 1.46289,-6.40039 z m -4.33789,15.7207 c -0.0491,0.37523 -0.10187,0.74968 -0.15039,1.125 0.0512,-0.1874 0.0998,-0.37542 0.15234,-0.5625 0.14137,-0.58333 0.29772,-1.1625 0.44531,-1.74414 -0.15865,0.39027 -0.29957,0.78727 -0.44726,1.18164 z m 0.002,0.5625 c -0.0679,0.28007 -0.12291,0.56332 -0.18945,0.84375 -0.2717,2.10496 -0.56526,4.20556 -0.85938,6.30664 -0.0257,0.61654 -0.0769,1.37016 -0.0684,1.74023 3.4e-4,0.014 -2.1e-4,0.0472 0,0.0625 0.51036,-1.16517 1.16548,-2.39722 1.77149,-3.60937 1.51779,-4.69869 3.01238,-9.40497 4.49414,-14.11523 -0.12457,-0.75828 -0.21289,-1.48865 -0.30273,-2.22071 -1.13352,2.25587 -2.2845,4.50681 -3.3379,6.79297 -0.019,0.075 -0.0258,0.11195 -0.0449,0.1875 -0.16057,0.63418 -0.27489,0.79674 -0.36328,0.74414 -0.19047,0.43055 -0.37739,0.86213 -0.55664,1.29688 -0.19697,0.65307 -0.35866,1.31457 -0.54297,1.9707 z m 1.09961,-3.26758 c 0.13723,-0.31019 0.26612,-0.62327 0.4082,-0.93164 0.44478,-1.75973 0.69755,-2.90771 1.05664,-4.39648 -0.50419,1.69593 -1.01696,3.39033 -1.54296,5.08203 0.0233,0.10469 0.044,0.22577 0.0781,0.24609 z m -0.44531,8.61133 c -0.56492,1.74884 -1.09991,3.50734 -1.67188,5.25391 -0.17289,0.52814 -0.0911,-1.03768 -0.0996,-1.64454 -0.0196,0.0448 -0.0489,0.094 -0.0684,0.13868 -0.0848,0.1949 -0.1478,0.39684 -0.22656,0.59375 -0.17867,1.16865 -0.3894,2.33255 -0.59765,3.49609 1.87655,-3.89243 6.37188,-14.78046 5.32031,-10.85547 -2.83933,10.59773 -4.95007,13.6268 -6.41992,16.23633 -0.24287,1.23739 -0.48603,2.53338 -0.71875,3.64062 -0.0989,0.96601 -0.20859,1.93772 -0.32617,2.89258 -0.0681,0.55342 -0.0345,1.74737 -0.0274,2.78516 0.0653,-0.0823 0.12973,-0.17292 0.19531,-0.25 0.0315,-0.0939 0.0601,-0.18882 0.0899,-0.2832 -0.0233,0.10044 -0.0394,0.15481 -0.0625,0.2539 1.47582,-1.71716 3.03077,-2.10148 4.64648,-0.78125 1.55459,-1.77389 3.17903,-3.49835 4.84571,-5.19336 -0.12458,-8.39251 -0.24494,-16.78522 -0.043,-25.14258 -1.71546,2.87309 -3.34771,5.88258 -4.83594,8.85938 z m 4.87891,16.2832 c 0.0182,1.2301 0.0319,2.45971 0.0469,3.68946 1.16822,-2.42893 2.33568,-4.85818 3.50391,-7.28711 -1.19868,1.18851 -2.37055,2.39732 -3.55078,3.59765 z m 0.0469,3.68946 c -0.79766,1.65846 -1.59687,3.31611 -2.39453,4.97461 0.79859,1.50727 1.60824,3.41717 2.42969,5.84179 0.0286,-3.6011 0.009,-7.20749 -0.0352,-10.8164 z m 0.0352,10.8164 c -0.031,3.91395 -0.12948,7.82089 -0.32813,11.7168 0.76099,-0.7024 1.43686,-1.27196 2.13281,-1.87109 0.217,-0.3215 0.42334,-0.63787 0.68946,-0.97657 -0.84045,-3.43046 -1.67314,-6.4458 -2.49414,-8.86914 z m -0.32813,11.7168 c -2.66037,2.45558 -5.38279,5.20137 -7.81055,8.00976 0.14863,0.60225 0.31649,1.17107 0.47071,1.78125 2.03975,-2.25944 4.14413,-4.45805 6.30273,-6.60742 0.12036,-0.15329 0.23286,-0.31379 0.35352,-0.46679 0.18515,-0.2348 0.40126,-0.43607 0.60156,-0.6543 0.0418,-0.68594 0.047,-1.37583 0.082,-2.0625 z m -1.03711,3.18359 c -2.03524,2.59197 -4.02235,5.23023 -5.96289,7.9043 0.4362,1.68747 0.86856,3.20105 1.30274,4.68359 1.84836,-4.36144 3.70533,-8.69844 5.55664,-13.00781 0.0113,-0.17424 0.0341,-0.34719 0.0449,-0.52148 -0.31601,0.3118 -0.62689,0.62823 -0.94141,0.9414 z m -5.96289,7.9043 c -0.11435,-0.44237 -0.22762,-0.85286 -0.33984,-1.29688 -0.54352,0.60206 -1.11526,1.17759 -1.64649,1.79102 -0.43966,0.5077 -0.86693,1.1374 -1.28711,1.81445 0.1579,0.58195 0.30474,1.16601 0.44922,1.75 0.94052,-1.35482 1.85597,-2.72433 2.82422,-4.05859 z m -0.81055,-3.07813 c -0.73572,-2.98128 -1.39893,-5.78106 -1.86523,-7.63671 -0.12793,-0.5091 -0.2015,-1.03069 -0.30664,-1.54493 -0.75021,1.55981 -1.49979,3.11988 -2.25,4.67969 0.0553,0.62607 0.0865,1.18393 0.16016,1.86719 0.22954,2.13081 0.77759,4.21028 1.3457,6.28711 0.88994,-1.21912 1.86458,-2.43606 2.91601,-3.65235 z m -4.42187,-4.50195 c -0.61297,-6.94353 -0.0947,-10.74569 1.04102,-15.5957 -0.13765,0.23316 -0.30387,0.44561 -0.4375,0.68164 -0.20283,0.35812 -0.37342,0.72862 -0.54688,1.09766 -0.26994,1.54617 -0.54191,3.09128 -0.76758,4.64648 -0.18602,2.84472 -0.0608,5.92764 0.44336,9.72461 0.089,-0.185 0.1786,-0.36969 0.26758,-0.55469 z m -0.26758,0.55469 c -0.96792,2.01247 -1.93637,4.02464 -2.9043,6.03711 -0.3822,2.01849 -0.92887,3.97788 -1.88086,5.78906 -0.79407,1.51082 -1.37583,2.55029 -2.05468,3.80469 -0.009,2.62671 -0.008,5.25423 0.0137,7.88086 0.004,0.4656 -0.0502,1.85785 0.0117,1.39648 0.12865,-0.95607 0.20608,-3.85121 0.18945,-2.88672 -0.022,1.2773 -0.0683,2.55323 -0.10937,3.83007 1.02566,-1.78671 2.11728,-3.53689 3.20117,-5.291 0.35594,-1.84795 0.74986,-3.68867 1.26562,-5.50196 0.62442,-2.19529 1.97914,-4.58601 3.70899,-7.01758 -0.2307,-1.09188 -0.55482,-2.45381 -0.68555,-3.1621 -0.33408,-1.81012 -0.5542,-3.36013 -0.75586,-4.87891 z m -6.73437,25.85155 c -0.5991,1.04365 -1.19763,2.0858 -1.77539,3.14063 0.57406,-0.69312 1.14766,-1.38574 1.74414,-2.06055 0.0123,-0.36006 0.0196,-0.72 0.0312,-1.08008 z m -1.77539,3.14063 c -0.23841,0.28784 -0.49087,0.56449 -0.72461,0.85546 -0.0224,0.20207 -0.0502,0.40779 -0.0723,0.60938 0.2624,-0.4901 0.52974,-0.97714 0.79688,-1.46484 z m 1.66992,-13.36132 c 0.002,-0.46871 -0.005,-0.93755 -0.002,-1.40625 0.98951,-2.05735 1.97925,-4.11453 2.96875,-6.17188 -0.25673,-0.89691 1.23238,-11.42984 2.8711,-19.51758 -1.04065,2.63786 -1.64224,4.19602 -2.97656,7.66016 -1.3868,6.36904 -2.60187,13.50041 -3.64063,20.87891 0.24153,-0.44033 0.52178,-0.96751 0.7793,-1.44336 z m 3.93554,-9.59375 c 0.22737,-1.20072 0.40296,-2.4202 0.52149,-3.66016 -0.30045,1.52221 -0.5958,3.04479 -0.99805,4.54492 -0.0437,0.16287 -0.0637,0.18974 -0.10156,0.31836 0.19285,-0.40097 0.38527,-0.80215 0.57812,-1.20312 z m 3.22852,-20.4082 c 0.0474,-0.27171 0.095,-0.54322 0.14453,-0.81446 -0.12197,0.30605 -0.26357,0.67142 -0.4043,1.02539 -0.0283,0.17144 -0.0399,0.33934 -0.0664,0.50977 0.10087,-0.24302 0.21392,-0.48192 0.32617,-0.7207 z m 0.14453,-0.81446 c 0.32629,-0.81874 0.91332,-2.31607 1.08399,-2.74219 0.001,-0.0877 -10e-4,-0.17605 0,-0.26367 0.0106,-0.65082 0.0464,-1.02714 0.0625,-1.61523 -0.29235,0.73103 -0.56007,1.4692 -0.72266,2.23828 -0.16682,0.78908 -0.27886,1.58919 -0.42383,2.38281 z m 1.08399,-2.74219 c -0.003,0.20652 0.002,0.4143 0,0.6211 0.11205,-0.45989 0.25924,-1.09661 0.38086,-1.58594 -0.0382,0.0953 -0.32083,0.81495 -0.38086,0.96484 z m 0,0.6211 c -0.10143,0.41626 -0.15113,0.75885 -0.24414,1.15625 0.0766,-0.12976 0.16634,-0.25002 0.24414,-0.37891 6.9e-4,-0.25918 -0.002,-0.51852 0,-0.77734 z m 1.70117,-7.00391 c -0.009,0.0106 -0.0181,0.0186 -0.0274,0.0293 -0.0705,0.21025 -0.1305,0.424 -0.19922,0.63476 10e-4,0.10701 -0.004,0.16815 -0.002,0.27735 0.0834,-0.34937 0.14278,-0.57429 0.22852,-0.94141 z m -0.22852,0.94141 c -0.0218,0.0914 -0.0389,0.15585 -0.0605,0.24609 -7e-5,0.002 0.009,-0.009 0.008,-0.006 -0.004,0.0126 -0.0111,0.0245 -0.0156,0.0371 -0.0653,0.2723 -0.11788,0.48198 -0.18164,0.74414 0.19286,2.31566 0.339,3.93467 0.31836,3.41992 0.0237,-0.0345 0.0446,-0.071 0.0684,-0.10546 -0.0689,-1.42066 -0.10852,-2.77065 -0.13672,-4.33594 z m -0.25,1.02148 c -0.014,-0.16785 -0.006,-0.0609 -0.0215,-0.24804 -0.24471,0.62691 -0.50525,1.24911 -0.77149,1.86914 0.10062,0.0521 0.18631,0.29622 0.27149,0.52343 0.16949,-0.68153 0.33778,-1.38917 0.52148,-2.14453 z m -0.0215,-0.24804 c 0.0649,-0.1662 0.14304,-0.32844 0.20312,-0.4961 0.003,-0.0114 0.005,-0.0198 0.008,-0.0312 0.002,-0.0304 -0.15499,0.18354 -0.14062,0.12305 0.0526,-0.21949 0.13318,-0.43181 0.20312,-0.64649 -0.002,-0.14845 0.005,-0.24139 0.004,-0.38476 -0.1219,0.15361 -0.23856,0.37949 -0.35937,0.55078 0.0771,0.93128 0.0265,0.21681 0.082,0.88477 z m -0.082,-0.88477 c -0.0654,-0.78951 0.0125,0.24684 -0.0703,-0.75 -0.0116,-0.4605 -0.0632,-0.92353 -0.10742,-1.38672 -0.28151,1.2566 -0.53633,2.43155 -0.78906,3.53711 -0.001,0.0282 -0.003,0.0614 -0.004,0.0898 0.318,-0.58526 0.64449,-1.0277 0.97071,-1.49023 z m -0.97071,1.49023 c -0.0112,0.0206 -0.022,0.0496 -0.0332,0.0703 -0.16475,0.72095 -0.33818,1.47621 -0.48828,2.14648 0.16182,-0.3634 0.32199,-0.69042 0.4668,-0.83203 0.0161,-0.479 0.0345,-0.94723 0.0547,-1.38477 z m 0.79297,-3.62695 c 0.2871,-1.28152 0.57989,-2.6134 0.89063,-4.0918 0.0975,-0.95233 0.21559,-1.8984 0.32226,-2.85156 -0.30097,0.58053 -0.57789,1.20863 -0.81445,1.89453 -0.20281,0.58804 -0.24565,2.08241 -0.40039,2.89063 -0.0398,0.71607 -0.0676,1.43303 0.002,2.1582 z m 1.21289,-6.94336 c 0.13005,-0.25084 0.25424,-0.53651 0.39649,-0.78906 0.15145,-0.77166 0.30248,-1.57084 0.45703,-2.39844 -0.091,-0.0554 -0.002,-1.38138 0.1289,-2.95117 -0.48082,2.00368 -0.75026,4.06425 -0.98242,6.13867 z m 0.98242,-6.13867 c 0.28848,-1.20211 0.65246,-2.38016 1.11133,-3.52734 0.12899,-0.84368 0.24492,-1.68964 0.36328,-2.53516 0.0585,-1.40269 0.12349,-2.53124 0.19922,-3.37695 -0.49186,2.21946 -0.95651,4.44331 -1.39648,6.67578 -0.12758,1.11142 -0.20307,1.87574 -0.27735,2.76367 z m -0.1289,2.95117 c 0.0498,0.0303 0.12897,-0.1585 0.26172,-0.82226 0.1434,-0.71701 0.25207,-1.44062 0.38086,-2.16016 -0.0313,0.0649 -0.0952,0.21647 -0.125,0.27734 -0.17741,1.01028 -0.34324,1.77154 -0.51758,2.70508 z m -22.46289,81.79296 c -0.18123,0.74937 -0.3392,1.5038 -0.45703,2.26758 -0.17323,1.12284 -0.2338,2.25109 -0.34766,3.37695 1.67738,-5.96323 2.9533,-10.05384 2.9043,-9.65039 -0.78133,1.34726 -1.48519,2.68371 -2.09961,4.00586 z m -4.14649,17.18945 c -0.0241,0.48427 -0.0426,0.97029 -0.0547,1.45704 0.15942,-0.64974 0.2959,-1.28001 0.45898,-1.92774 -0.14363,0.16314 -0.26442,0.31033 -0.4043,0.4707 z m -0.0547,1.45704 c -0.47861,1.95051 -0.96031,3.89504 -1.37891,5.7871 0.47635,-0.26699 0.85548,-0.44931 1.42187,-0.79492 -0.0765,-1.6851 -0.084,-3.34584 -0.043,-4.99218 z m -2.49805,11.18359 c -0.30763,1.65849 -0.37299,2.8139 -0.54492,4.19336 h 0.79687 c 0.31397,-0.83009 0.50506,-1.71972 0.90625,-2.50586 0.53672,-1.05171 1.10666,-2.07983 1.70703,-3.08985 -0.0944,-1.03109 -0.15949,-2.04191 -0.22461,-3.05273 -1.05313,1.64379 -1.95748,3.15049 -2.64062,4.45508 z m 80.3418,-215.96874 c -0.0371,0.0201 -0.0762,0.0365 -0.11329,0.0566 -1.1447,0.62249 -3.83331,3.53062 -2.86718,2.65625 0.99611,-0.90153 1.98652,-1.80896 2.98047,-2.71289 z m 198.41016,40.75 c -0.60848,0.0154 -1.20794,0.0229 -1.81836,0.0469 0.002,0.78316 0.02,1.56645 0.0234,2.34961 0.60638,-0.7945 1.20574,-1.59239 1.79492,-2.39648 z m -235.89063,19.9082 c -1.70526,1.9989 -3.32094,4.05864 -4.86524,6.16602 -0.2876,2.03137 -0.48405,3.85827 -0.58008,5.60742 1.9396,-3.70776 3.80889,-6.7315 3.1836,-4.52734 0.75243,-2.41578 1.50981,-4.83016 2.26172,-7.2461 z m -2.41602,7.74219 c -0.79882,2.51536 -1.89362,4.92063 -3.05664,7.30078 0.0211,0.67687 0.0322,1.36199 0.0937,2.07813 0.98201,-3.12807 1.98772,-6.24865 2.96289,-9.37891 z m -0.54687,22.08008 c 0.23118,0.93175 0.40708,1.71863 0.67578,2.75195 0.46761,1.79827 1.69081,4.88932 2.875,7.67383 0.15322,-0.31857 0.30771,-0.63651 0.46093,-0.95508 -1.31285,-3.1663 -2.77814,-6.28132 -4.01171,-9.4707 z m 4.89257,11.81836 c -0.1753,0.17809 -0.35335,0.35366 -0.52929,0.53125 1.32733,2.97097 2.35275,4.89162 1.7207,2.7832 -0.33719,-1.12483 -0.77624,-2.21554 -1.19141,-3.31445 z m -18.33398,47.75195 c -1.03602,1.80446 -1.98374,4.08043 -2.86523,6.52344 1.04741,-1.6092 2.15837,-3.17469 3.24804,-4.75586 -0.14672,-0.6337 -0.23826,-1.1147 -0.38281,-1.76758 z m 1.41797,10.57031 c -1.18665,0.92581 -2.32489,1.83713 -3.23047,2.66992 -1.50123,1.38059 -2.858,2.72146 -4.17383,4.05273 -0.18189,0.75998 -0.35661,1.4824 -0.51562,2.19922 2.67324,-2.24688 4.50377,-3.67576 6.70508,-5.46484 0.37397,-1.15834 0.80072,-2.30648 1.21484,-3.45703 z m -7.91992,8.92187 c -0.0566,0.0476 -0.0975,0.0792 -0.1543,0.12695 -0.028,0.2866 -0.0498,0.57439 -0.0762,0.86133 0.0666,-0.31107 0.15903,-0.66625 0.23047,-0.98828 z m -0.1543,0.12695 c 0.0598,-0.61102 0.0978,-1.22672 0.16602,-1.83594 -0.79821,0.81767 -1.49115,1.60916 -2.22266,2.41016 -0.0133,0.39384 -0.0208,0.78782 -0.0332,1.18164 0.0757,-0.0662 0.14418,-0.14419 0.2207,-0.20898 0.72251,-0.61181 1.17917,-0.96662 1.86914,-1.54688 z m -2.05664,0.57422 c 0.003,-0.0801 0.003,-0.16014 0.006,-0.24024 -0.10885,0.20086 -0.22811,0.40016 -0.33399,0.60157 0.10854,-0.12011 0.21812,-0.24087 0.32813,-0.36133 z m -0.32813,0.36133 c -0.84509,0.93516 -1.6893,1.87049 -2.44726,2.78515 -0.0364,0.35088 -0.0564,0.66478 -0.0918,1.01368 0.47755,-0.59332 0.97054,-1.1631 1.48633,-1.70118 0.33083,-0.70275 0.68731,-1.40248 1.05273,-2.09765 z m -2.53906,3.79883 c -1.61302,2.00405 -2.99432,4.29498 -4.28711,6.61718 -1.0767,4.33934 -1.16798,9.52881 -0.90234,14.64844 0.43051,-0.44656 0.79836,-0.8558 1.23828,-1.30664 0.54043,-6.35688 1.66714,-12.21075 3.74805,-17.74023 0.0725,-0.75299 0.12572,-1.45501 0.20312,-2.21875 z m -3.95117,19.95898 c -0.16083,1.89182 -0.27367,3.83398 -0.33398,5.82617 0.85524,-1.15152 1.77198,-2.34919 2.67382,-3.54101 0.0555,-1.55773 0.12203,-3.1337 0.22266,-4.91407 -0.90781,0.90962 -1.68108,1.72561 -2.5625,2.62891 z m 2.33984,2.28516 c -0.0554,1.55619 -0.1183,3.15106 -0.12695,4.44336 1.4018,-1.55897 2.83333,-3.09785 4.2793,-4.62891 0.32554,-2.07424 0.59922,-4.16041 0.80469,-6.26172 -1.67793,2.17167 -3.36861,4.34809 -4.95704,6.44727 z m 4.95704,-6.44727 c 0.0833,-0.10786 0.16262,-0.21236 0.24609,-0.32031 -0.0331,-0.22233 -0.10207,-0.61344 -0.13086,-0.81055 -0.0341,0.37796 -0.0784,0.75353 -0.11523,1.13086 z m 0.11523,-1.13086 c 0.0678,-0.75132 0.15225,-1.49855 0.21094,-2.25195 -0.13753,0.13249 -0.27245,0.26534 -0.41016,0.39844 0.0541,0.46173 0.0581,0.92297 0.12305,1.38476 0.0151,0.10464 0.0595,0.35474 0.0762,0.46875 z m 0.21094,-2.25195 c 0.10663,-0.10273 0.21186,-0.20625 0.31836,-0.3086 -0.0657,-0.47261 -0.14352,-0.94515 -0.19922,-1.41796 -0.0408,0.57523 -0.0744,1.15224 -0.11914,1.72656 z m 0.31836,-0.3086 c 0.11172,0.80393 0.20702,1.60843 0.33789,2.41211 1.37539,-1.77541 2.67819,-3.46801 3.98828,-5.17382 0.009,-0.43045 -0.0207,-0.80142 -0.006,-1.24219 -1.41687,1.30616 -2.76718,2.51133 -4.32031,4.0039 z m -1.44922,9.95313 c -0.52696,3.35763 -1.19056,6.68382 -2.22657,9.92773 -1.46991,4.60271 -2.09942,1.6784 -2.05273,-5.29882 -0.87772,0.97612 -1.71612,1.97827 -2.5625,2.9746 0.16116,2.76232 0.79219,5.48199 1.48828,8.19922 2.61499,-3.74527 5.37887,-7.72728 8.19922,-11.74414 -0.34175,-1.67888 -0.6488,-3.53733 -1.04492,-5.98047 -0.6054,0.63737 -1.19764,1.28325 -1.80078,1.92188 z m -7.73047,-0.79297 c -1.46499,1.5196 -2.90686,3.02113 -4.21484,4.44531 0.006,2.28552 0.0768,4.5742 0.21484,6.86719 1.33094,-1.90805 2.8072,-3.94649 4.37109,-6.0625 -0.15426,-1.71879 -0.27868,-3.46903 -0.37109,-5.25 z m -4,11.3125 c -0.9712,1.39232 -1.83511,2.68606 -2.64453,3.93164 -0.0192,1.22226 -0.0547,2.34232 -0.084,3.50391 0.89973,-1.50324 1.91537,-2.9317 2.9336,-4.35742 -0.0799,-1.02664 -0.14336,-2.05263 -0.20508,-3.07813 z m 0.20508,3.07813 c 0.26172,3.36216 0.59164,6.73201 0.92382,10.10156 h 1.5625 c 0.74364,-1.89229 1.51403,-3.80669 2.38868,-6.04102 0.24428,-0.34721 0.53087,-0.76124 0.77734,-1.11328 -0.17179,-0.74007 -0.39478,-1.79525 -0.5293,-2.30469 -0.16216,-1.86203 -0.40665,-4.11813 -0.64062,-6.40429 -1.57692,1.86624 -3.07211,3.78699 -4.48242,5.76172 z m 4.69726,-29.03907 c 0.31009,-1.2497 0.69825,-2.42735 1.18555,-3.50976 -1.1102,1.55672 -2.08617,3.08796 -2.96484,4.60156 -0.0621,0.32671 -0.44191,1.72247 -1.29102,4.63477 0.96778,-1.84749 1.99437,-3.79388 3.07031,-5.72657 z m 12.6875,9.09571 c -1.11624,1.19732 -2.17414,2.43469 -3.30273,3.62304 0.33228,2.01886 0.62587,4.03915 0.78906,6.06641 1.00983,-1.43379 2.05067,-2.85258 3.08008,-4.2793 -0.2583,-1.70798 -0.44931,-3.50481 -0.56641,-5.41015 z m -20.33789,25.13281 c -0.0485,1.76737 -0.13304,3.25822 -0.19726,4.91211 h 0.77148 c -0.19549,-1.63997 -0.4221,-3.33512 -0.57422,-4.91211 z" />
    </clipPath>
  </defs>
  <g
     inkscape:label="Layer 1"
     inkscape:groupmode="layer"
     id="layer1">
    <g
       inkscape:label="Layer 1"
       id="layer1-3"
       transform="matrix(0.83290948,0,0,0.75942428,-55.940412,-59.201113)">
      <g
         transform="matrix(0.0232409,0,0,-0.0112986,67.17028,144.95714)"
         fill="#000000"
         stroke="none"
         id="g90730"
         style="fill:#28a745">
        <path
           id="path90720"
           style="fill:#28a745;stroke-width:0.0613102"
           transform="matrix(11.360466,0,0,-23.417356,-1553.8561,10972.849)"
           d="m 904.87891,213.21094 c -0.17605,0.12811 -4.22519,10.54757 -8.97852,23.23047 -4.75333,12.64019 -8.71262,22.84633 -8.88867,22.63281 -0.088,-0.21352 -3.96165,-10.4612 -8.62695,-22.75977 -2.57323,-6.91394 -3.31284,-8.53848 -4.94922,-12.69922 -1.07747,0.3388 -2.16883,0.62643 -3.25586,0.93555 0.36439,4.34584 0.69689,7.92735 1.16211,14.92383 0.79222,10.54773 2.11376,30.14778 3.08203,43.55664 2.12895,29.52144 3.52758,49.99537 4.3164,63.24414 1.90543,-0.0431 3.65906,-0.0199 5.88086,-0.17578 3.51077,-0.24638 6.98092,-0.91172 10.47071,-1.36719 0.25104,-0.0335 0.50474,-0.0715 0.75586,-0.10547 0.61699,-11.77728 1.49441,-26.21936 2.34179,-37.2539 1.14432,-15.45862 4.22496,-57.9913 5.28125,-73.87696 0.44013,-7.04605 1.05624,-14.51912 1.32032,-16.65429 0.26407,-2.09247 0.35191,-3.71627 0.0879,-3.63086 z m 211.96489,0 c -0.2641,-0.0854 -0.1772,1.53839 0.088,3.63086 0.2641,2.13517 0.8802,9.60824 1.3204,16.65429 2.5527,37.83519 4.3997,63.243 4.8398,66.83008 1.2323,10.59044 0.6163,16.05609 -2.6406,24.76758 -2.3767,6.40551 -3.0801,9.48065 -3.0801,13.28125 v 2.35547 c 8.9086,0.37835 20.8427,0.80215 22.2695,0.87109 20.0841,0.97053 39.6239,2.11923 59.4805,4.54883 l 0.5527,-5.04297 0.2051,5.13867 c 3.1862,0.39529 6.3585,0.73725 9.5664,1.20899 7.1815,1.05605 14.1498,3.24762 21.2246,4.87109 13.8857,3.18637 10.667,17.21177 -3.2187,14.02539 -7.0749,-1.62347 -14.0426,-3.81684 -21.2246,-4.86914 -2.3723,-0.34758 -4.8564,-0.59569 -7.2793,-0.90039 -0.026,0.0486 -0.056,-0.0386 -0.082,-0.01 -8.7723,-1.10128 -17.7467,-2.00171 -26.8359,-2.67188 1.6592,3.12723 2.191,4.69795 1.5898,5.15625 -0.7042,0.55514 -0.7931,0.55604 -0.705,-0.16992 0.088,-0.46974 4e-4,-1.15251 -0.2637,-1.49414 -0.8413,-1.16608 -1.5651,-2.42318 -2.1445,-3.58008 -10.6834,-0.76608 -21.4035,-1.34884 -31.67,-1.8418 -2.6241,-0.126 -23.5429,-0.92535 -41.0468,-1.60547 -0.097,0.2012 -0.2188,0.42565 -0.3125,0.6211 l -4.6641,10.03515 -0.1816,-10.85742 c -6.4001,-0.23658 -13.627,-0.60015 -16.3262,-0.63867 -11.0947,-0.15832 -22.1913,3e-5 -33.2871,0 -2.0606,0.0391 -2.265,0.0327 -3.9668,0.0703 0.015,1.15774 0.029,2.30216 -0.012,3.17578 l -5.2032,-0.1621 c -2.9048,-0.0427 -5.457,-0.12891 -5.457,-0.12891 -0.088,0 -0.4409,2.00758 -0.793,4.48437 -0.4401,2.77572 -0.5277,0.38554 -0.2636,-6.40429 0.016,-0.39487 0.045,-0.39256 0.061,-0.75977 -7.8637,0.12189 -14.2869,0.0226 -30.41405,-1.0957 -4.63313,-0.32128 -9.21537,-1.30662 -13.85742,-1.44922 -13.3262,-0.40934 -7.36834,0.16915 -15.54883,1.84766 -2.2986,0.47163 -4.63001,0.76149 -6.94531,1.14257 -1.34306,0.13731 -2.67948,0.38679 -4.0293,0.41211 -3.71471,0.0694 -7.43215,-0.0404 -11.14648,-0.1289 -2.43343,-0.058 -4.86496,-0.2686 -7.29688,-0.28907 0.10477,3.8003 0.042,5.75178 -0.25586,4.16211 -0.3521,-1.75083 -0.70299,-2.86089 -0.79101,-2.47656 -0.26408,1.2811 -2.81823,0.89802 -2.90625,-0.42578 -0.088,-0.64055 -0.26327,-0.85477 -0.52735,-0.42773 -0.17605,0.38433 0.26456,1.70886 0.96875,2.94726 0.79222,1.2384 1.23074,2.30548 1.05469,2.43359 -0.26407,0.0854 -1.0553,-0.9396 -1.93555,-2.2207 -0.79351,-1.2511 -1.06814,-2.26469 -1.05468,-3.69726 -6.85379,0.50929 -12.74682,1.37447 -19.91993,2.35351 -4.09707,0.55921 -8.19614,1.09859 -12.29492,1.64258 -0.93286,1.33755 -1.28691,1.62673 -0.97265,0.59766 0.0789,-0.20106 0.13294,-0.29373 0.21679,-0.49805 -0.90964,0.12084 -1.81891,0.24365 -2.72851,0.36523 -0.30676,0.0495 -0.61499,0.0702 -0.92188,0.11719 -0.18962,1.0703 -0.43945,2.1557 -0.43945,3.08984 -0.088,1.75089 -0.26332,3.07538 -0.52734,2.94727 -0.0629,-0.0305 0.18959,-4.60426 0.21289,-5.94141 -5.35953,0.78515 -10.73789,1.18515 -16.12696,1.3418 -0.0193,0.83478 0.24862,4.94051 0.15821,4.98438 -0.26408,0.17081 -0.5293,-1.36763 -0.5293,-3.33204 0,-0.827 -0.16544,-1.04731 -0.21484,-1.65624 -1.0817,0.0277 -2.16565,-0.0236 -3.24805,-0.0156 0.26158,0.75811 0.74584,1.87954 0.64648,1.92773 -0.0856,0.0623 -0.67989,-1.246 -1.07031,-1.92968 -11.57444,0.0595 -23.16952,-0.78583 -34.71875,-1.76758 -0.0308,0.0617 0.003,0.13858 -0.0371,0.19726 -1.14432,1.62273 -2.2009,2.81783 -2.37695,2.73243 -0.17605,-0.0854 0.4398,-1.36645 1.49609,-2.81836 0.0557,-0.086 0.0246,-0.0983 0.0762,-0.18164 -0.88342,-0.075 -1.76773,-0.1448 -2.65039,-0.21875 -0.0324,0.52862 -0.11905,0.82991 -0.0664,1.85156 0.17605,1.96435 -0.0874,3.75887 -0.43946,3.92969 -0.1633,0.0792 -0.0779,-3.3489 -0.0625,-5.83008 -1.45612,-0.12145 -2.91937,-0.24872 -4.37304,-0.36328 -14.39415,-1.14858 -11.6662,-1.16433 -27.59766,-1.3086 -3.22182,-0.0291 -6.44425,0.23439 -9.66406,0.11719 -19.37208,-0.70524 -3.50048,-0.41857 -16.36524,-1.83203 -2.20157,-0.24188 -4.42355,-0.25267 -6.63476,-0.37891 -8.13999,0.061 -16.27246,0.27586 -24.40821,0.39258 0.0955,2.04765 0.3303,4.38085 0.28907,5.70117 l -0.0879,5.125 -0.44141,-4.48437 -0.52734,-4.48438 -5.63282,-0.21289 -5.08593,-0.19336 c -0.0117,-0.29718 0.0502,-1.0145 0.0449,-1.35547 -6.87726,-0.12393 -13.75675,-0.0615 -20.63477,-0.0508 -1.03045,1.6e-4 -2.06706,0.12548 -3.08984,0 -2.05425,-0.25201 -4.09101,-0.6625 -6.10742,-1.1289 -1.27911,-0.29586 -2.46052,-1.0117 -3.76563,-1.1543 -2.74106,-0.29949 -5.51225,-0.13483 -8.26953,-0.16016 -5.26666,-0.0487 -8.70688,0.0756 -12.47656,0.16407 -0.25605,4.42691 -0.55372,6.34078 -1.17774,5.16015 l -1.05468,-1.92187 0.43945,2.13476 c 0.26407,1.15299 0.79257,2.2215 1.05664,2.34961 0.3521,0.12811 0.70299,1.27945 0.79102,2.56055 0.088,1.2811 -0.0876,1.8791 -0.26368,1.28125 -0.89288,-2.32134 -2.85938,-6.55432 -5.26171,-11.49219 -0.40401,0.009 -0.5327,0.004 -0.9668,0.0137 -10.65464,0.50381 -21.32616,0.38239 -31.98828,0.30664 -2.3638,-0.0168 -4.7336,0.10273 -7.0918,-0.0605 -3.39077,-0.23479 -6.75689,-0.75558 -10.13477,-1.13282 -7.79739,-1.39067 -6.48518,-0.82349 -15.04101,-4.13476 -1.3168,-0.50962 -2.54105,-1.24985 -3.82227,-1.8418 -1.77956,0.72505 -3.66377,1.22331 -5.46289,1.90625 -1.43716,0.23009 -2.86021,0.5927 -4.3125,0.68946 -4.16681,1.02972 -8.32372,-0.38686 -12.47851,-0.17774 -4.45685,0.22434 -6.53637,0.63753 -8.84571,1.09766 0.087,0.77258 0.13317,0.80317 0.2168,1.63086 0.44012,4.39844 0.52788,8.54109 0.17578,9.18164 -0.61617,1.11029 -0.70427,0.98309 -1.23242,-1.10938 -0.30235,-1.15248 -0.46891,-5.517 -0.49609,-9.47656 -1.08316,0.2006 -1.81406,0.38745 -3.54102,0.59766 -2.56535,0.31226 -5.14996,0.44494 -7.72461,0.66797 -1.4626,0.0297 -2.92596,0.11441 -4.38867,0.0898 -6.16785,-0.10369 -2.9774,-0.1771 -7.59375,-0.54492 -2.81617,-0.22438 -5.76613,-0.16181 -8.63086,-0.10547 -1.29534,1.45574 -2.57031,2.92112 -2.57031,3.13476 0,0.25622 -0.26314,0.55327 -0.61524,0.63868 -0.24995,0.0727 -0.38537,-1.52098 -0.44922,-3.76172 -1.99153,-0.0556 -4.001,-0.28696 -5.94726,0.0977 -5.14457,1.01666 -8.85144,1.88469 -11.98242,2.70313 -0.0859,5.88385 -0.3824,10.80045 -0.89844,10.52734 -0.17605,-0.0427 -0.35338,-1.922 -0.44141,-4.14258 -0.088,-2.22057 -0.5268,-4.5252 -0.8789,-5.12304 -0.3521,-0.59785 -0.70481,4.99513 -0.88086,12.38281 l -0.22266,11.375 c 6.36735,0.0762 21.06593,0.36772 26,0.46484 7.9886,0.19577 3.72444,0.11163 7.89649,0.125 0.29589,-0.29723 0.73351,-0.41682 1.11914,-0.58593 0.75764,-0.33249 1.50497,-0.72126 2.31054,-0.91016 1.79505,-0.42096 3.63641,-0.60704 5.45508,-0.91016 3.38694,0.40827 6.37131,-0.96812 9.62695,-1.49023 0.46489,-0.47829 0.95119,-0.92803 1.5293,-1.25391 0.9004,-0.50752 6.90813,-1.4152 7.9707,-1.58203 8.10717,-1.27277 4.03564,-0.6828 16.31446,-1.13867 32.15697,0.49148 64.31778,0.44645 96.48047,0.39648 -0.60144,16.41236 23.41211,-8.23602 27.75195,-0.0664 0.0999,0.18806 0.13993,0.38962 0.2207,0.58203 1.05365,-0.87322 2.95234,-0.55469 7.2793,-0.55469 3.37361,-9.2e-4 6.74749,-8.2e-4 10.12109,-0.002 2.40885,-7.7e-4 4.82604,0.19769 7.22657,-0.002 11.17852,-0.92941 2.87139,-0.70083 10.08398,-2.20312 4.71296,-0.98166 5.12188,-0.83867 9.23828,-0.91211 4.19974,0.57718 1.95109,0.0184 5.95508,1.5957 0.81959,0.32288 1.6105,-0.79989 2.48633,-0.89453 1.93432,-0.20901 3.89494,0.0548 5.83593,-0.0781 6.03444,-0.41338 12.05389,-1.04044 18.08008,-1.56055 19.19271,-1.89455 15.39421,-1.84482 37.35157,-2.32031 0.58061,-0.0126 0.78287,0.015 1.32617,0.004 0.0387,0.007 0.0264,-0.1098 0.0664,-0.084 0.0274,0.0133 -0.0138,0.0656 0.01,0.084 10.92585,-0.22355 15.04448,-0.15885 26.78125,1.84571 3.96068,0.67645 14.41753,3.96409 17.60937,4.91992 -6.03666,5.85944 3.12222,2.63108 7.41211,1.88477 0.9055,-0.27167 1.97068,-0.28538 2.88477,-0.5254 5.36901,-1.4098 5.14308,-0.41074 13.58594,0.13672 8.36681,1.19942 7.58479,1.26664 16.11718,1.75586 1.50308,0.0861 3.01758,-0.0424 4.51563,0.10742 3.28343,-0.96783 5.80176,1.55163 8.77148,1.93555 1.40172,0.18123 2.82707,-0.0485 4.24024,-0.0723 8.81892,-0.0884 17.62319,-0.46041 26.44336,-0.50391 8.37985,-0.0413 4.48162,0.51306 10.65234,-0.80859 -0.14362,-0.0589 -0.582,-0.14593 -0.42969,-0.17579 4.87076,-0.95324 9.75091,-1.86673 14.65821,-2.60937 3.85557,-0.58348 7.74959,-0.88591 11.61906,-1.36719 8.4221,-1.04748 16.7584,-2.20819 25.1133,-3.66211 3.6948,-1.14974 7.4046,-1.05978 11.1836,-0.75976 5.3815,0.42722 10.7664,0.80325 16.1504,1.19726 22.5601,1.65099 10.6785,-0.0364 34.6152,5.24805 9.7678,3.4328 9.9349,3.71451 19.6309,6.29297 1.5691,0.41726 3.1363,0.92499 4.7539,1.06445 0.9138,0.0788 1.8393,-0.15756 2.7188,-0.41797 0.1186,-0.0351 -0.2568,-0.29537 -0.1426,-0.34375 1.011,-0.42939 2.1052,-0.62493 3.1582,-0.9375 0.6553,-0.14109 1.2975,-0.38452 1.9668,-0.42383 6.0691,-0.35504 12.221,0.18115 18.289,0.30665 1.6104,0.0332 3.2266,0.20261 4.8321,0.0723 2.3395,-0.19022 4.6448,-0.68769 6.9668,-1.03125 1.7118,-0.35171 3.4002,-0.84175 5.1347,-1.05469 16.3868,-2.0117 2.8185,0.0521 15.2461,-0.74609 19.9466,-1.28112 -2.6572,-0.22579 11.9864,-1.60352 2.9753,-0.27992 5.9673,-0.33474 8.9511,-0.50195 5.3783,-0.004 6.0152,-0.0897 11.1953,0.21484 0.8515,0.05 1.6992,0.33315 2.5469,0.23829 0.2213,-0.0248 -0.2841,-0.35371 -0.4746,-0.46875 -0.1132,-0.0684 -0.4837,0.041 -0.3926,-0.0547 0.4236,-0.44412 0.9898,-0.72641 1.4844,-1.08985 2.7781,-2.3588 6.3503,-2.65143 9.7422,-2.10742 2.1672,-1.59849 7.2398,-1.8856 11.2051,-1.36914 1.6305,-0.90128 2.6953,-1.16686 5.6523,-0.7539 1.0551,0.31434 0.8401,0.0479 0.5566,0.0664 2.1607,-0.0246 4.3219,-0.0496 6.4825,-0.0742 9.9947,0.002 4.7684,1.1301 2.7304,-2.16015 -0.4883,-0.78846 -0.2042,-1.84384 -0.3066,-2.76563 -0.6876,-6.19486 2.4874,-9.314 6.0469,-9.6914 2.2658,-0.24025 4.682,0.6386 6.3613,2.5332 -0.2956,-3.27596 -0.4541,-7.84266 -0.2266,-11.59766 0.4402,-6.74713 5.1924,-48.29763 8.4493,-73.87695 0.5281,-4.35574 0.8811,-8.24094 0.705,-8.66797 -0.176,-0.42703 -3.8722,8.75409 -8.2734,20.41211 -4.3132,11.65802 -8.0115,21.01013 -8.1875,20.75391 -0.176,-0.21352 -2.6402,-8.15657 -5.457,-17.63672 -2.8168,-9.48015 -5.1934,-16.73847 -5.1934,-16.14063 -0.088,0.59785 0.9688,12.29808 2.2012,26.00586 l 2.375,24.9375 -2.375,6.44922 c -2.1126,5.76496 -2.2889,7.51471 -2.377,16.48242 v 10.03711 l -3.1699,-3.20312 c -2.9928,-2.94654 -3.2553,-3.54528 -3.6074,-7.6875 -0.1761,-2.4768 0.5278,-14.94485 1.4961,-27.75586 3.1689,-39.84225 5.2804,-67.42945 5.8086,-74.30469 l 0.4414,-6.61914 -13.9961,33.47851 -13.9082,33.48047 0.3515,9.65039 c 0.4402,8.8396 0.2643,9.90672 -1.4082,12.81055 -0.9682,1.75084 -1.9372,3.20366 -2.1132,3.28906 -0.1761,0.0854 -1.0555,-0.46935 -1.8477,-1.19531 -1.4964,-1.36651 -1.4095,-2.60544 2.0234,-31.51562 2.0246,-16.56891 3.8746,-30.95976 4.1387,-32.02735 0.2641,-1.06758 0.2641,-1.79412 0,-1.66601 -0.2641,0.12811 -4.8414,11.91534 -10.2109,26.26367 -11.3552,30.4902 -10.5633,28.39711 -11.3555,28.18359 -0.3521,-0.12811 -0.5277,0.29891 -0.2637,0.93946 0.1761,0.64055 -1.1459,4.86824 -2.8183,9.4375 -2.1126,5.55143 -3.168,9.60772 -3.168,12.16992 v 3.88672 l -4.0488,-3.41602 c -2.2887,-1.87895 -5.6339,-4.6128 -7.4824,-6.10742 -3.1689,-2.4768 -3.4336,-2.94525 -3.4336,-5.76367 0,-2.56221 1.3202,-10.33422 3.9609,-23.57227 l 0.4414,-2.13672 -2.7285,2.73438 c -1.4084,1.49462 -2.7303,2.6479 -2.8184,2.5625 -0.176,-0.0854 0.177,-5.16881 0.7051,-11.27539 l 0.8809,-11.10157 4.8398,-0.21484 4.8418,-0.21289 -5.9844,-1.19531 c -3.2569,-0.64055 -6.2512,-1.15235 -6.6914,-1.15235 -0.4401,0 -1.6721,2.90289 -2.8164,6.44727 -1.1443,3.54438 -2.2009,6.19177 -2.3769,5.93555 -0.2641,-0.29893 -2.1121,-6.14989 -4.2246,-12.98243 -2.5528,-8.15634 -3.6977,-11.18826 -3.4336,-8.79687 0.176,2.00706 1.0574,11.0191 1.8496,20.07227 1.3203,15.88565 1.3207,16.61086 -0.2637,21.56445 l -1.6738,5.125 -2.377,-1.70899 c -2.8168,-2.00705 -2.9039,-1.9215 -0.6152,1.28125 2.2006,3.07465 2.2009,3.07523 -0.1758,9.52344 l -1.8496,5.25195 -1.7598,-1.32421 c -1.6724,-1.32381 -1.6715,-1.70701 -0.6152,-22.75977 l 1.0547,-21.4375 -13.8184,-36.72461 c -7.5701,-20.19869 -13.9963,-36.81134 -14.1718,-36.93945 z m -952.07427,0.17187 c -0.17605,-0.0427 -6.51374,16.65446 -14.17187,37.10938 l -13.90821,37.23633 2.20117,41.8496 c 1.23235,23.01717 2.63983,48.68261 3.16797,57.00977 1.32037,22.33386 2.11254,51.92561 1.32032,51.58399 -0.3521,-0.17087 -0.88033,-0.93838 -1.23243,-1.70704 -0.44012,-0.85406 -0.88019,1.70826 -1.32031,6.61914 -0.3521,4.39845 -0.35191,8.1986 -0.0879,8.41211 0.13368,0.11349 149.4613,0.10326 213.25,0.16211 v -0.11914 -2.65429 -2.1543 -4.12891 -7.30273 -4.47071 -5.32421 -4.25196 -4.78711 -7.05273 -2.86523 -4.54883 -6.02735 -5.01953 -3.29687 -5.66407 -2.91601 -2.59961 -4.47852 -5.19531 -2.47851 c -10e-6,-1.57037 0,-3.14064 0,-4.71094 -0.28225,-1.29562 -0.64591,-4.29179 -0.93359,-10.81641 -0.61617,-12.6829 -0.96958,-15.37256 -2.99414,-21.26562 l -2.28907,-6.70508 1.9375,-2.69141 c 2.28864,-3.37356 2.28864,-3.8856 0,-2.13476 -1.05629,0.76866 -2.11274,1.41015 -2.46484,1.41015 -0.26407,0 -3.25676,-8.19908 -6.51367,-18.23437 -3.25691,-9.99259 -6.07382,-18.32085 -6.33789,-18.40625 -0.26408,-0.12811 -3.34439,0.34213 -6.77735,1.02539 l -6.42578,1.23828 4.92969,0.12891 4.92774,0.12695 0.61718,9.69336 c 0.3521,5.33792 0.79257,10.5496 1.05664,11.61719 l 0.43946,1.91992 -3.08008,-2.98828 c -3.43296,-3.41627 -3.43338,-3.41675 -2.28906,1.49414 0.44012,2.00706 1.58446,8.11404 2.55273,13.58008 l 1.84766,9.90625 -3.78516,2.99023 c -2.02456,1.62273 -3.96054,2.98828 -4.22461,2.98828 -0.26407,0 -2.02453,-1.53707 -3.87305,-3.41601 -1.76049,-1.92166 -3.43332,-3.37252 -3.60937,-3.28711 -0.17605,0.0854 0.52782,2.26254 1.49609,4.91015 1.14432,2.77572 1.58452,5.2523 1.23242,5.93555 l -0.61523,1.19531 -1.32031,-1.23828 c -0.79222,-0.72596 -1.14507,-1.70764 -0.79297,-2.43359 0.26407,-0.64055 -0.88027,-4.61168 -2.55274,-8.75391 -1.67246,-4.14223 -3.87352,-9.7787 -4.84179,-12.51172 -5.54555,-15.11699 -19.97994,-52.9952 -20.33203,-53.16601 -0.17605,-0.12811 -0.26389,0.51312 -0.0879,1.36718 0.088,0.85407 1.75877,14.6029 3.69531,30.53125 l 3.43359,28.91016 -3.60937,2.77734 c -1.93654,1.53733 -3.69687,2.73189 -3.96094,2.64649 -0.17605,-0.0854 0.0892,-6.1054 0.5293,-13.32227 l 0.79101,-13.15429 -13.9082,-33.77735 c -7.74616,-18.57596 -13.99414,-33.00978 -13.99414,-32.07031 -0.088,0.93947 0.52627,8.62676 1.23047,17.08203 2.11259,26.21987 2.28942,23.57047 -3.08008,42.14649 -2.64074,9.13852 -5.01718,16.57031 -5.28125,16.57031 -0.26407,0 -4.66593,-11.18871 -9.85938,-24.89649 -8.6264,-22.54738 -9.4185,-24.42658 -9.0664,-20.15625 0.52814,5.76496 6.42706,56.24046 6.86719,58.16211 0.44007,2.17787 -0.61708,1.15404 -3.25782,-3.28711 -3.78505,-6.3628 -15.1407,-20.45534 -16.37304,-20.49804 -0.26408,0 0.001,2.04886 0.52929,4.56836 0.61617,2.51949 2.19917,10.50578 3.51953,17.72265 2.46469,12.85372 2.46531,13.1524 0.88086,14.73242 -0.88024,0.89677 -1.75949,1.40883 -1.93554,1.19532 -0.3521,-0.42704 -2.90563,-5.12477 -8.45118,-15.45899 -1.49641,-2.90383 -2.90402,-5.16575 -3.08007,-5.12305 -0.088,0.0854 0.70333,3.50009 1.84765,7.59961 1.14432,4.09953 2.64164,9.90725 3.25782,12.89649 1.05624,5.1244 0.96712,5.59443 -0.5293,6.96094 l -1.58399,1.45312 -1.67187,-1.75195 c -1.23235,-1.36651 -1.58594,-2.81881 -1.58594,-6.66211 0,-4.35574 -1.05515,-7.72863 -8.44922,-28.1836 l -8.53906,-23.23046 3.78516,-2.13477 c 2.02456,-1.19569 3.52188,-2.2215 3.25781,-2.34961 -0.26407,-0.12811 -2.81771,-0.0849 -5.81055,0.0859 l -5.36914,0.29883 0.0879,1.75 c 0,0.93947 0.70374,10.12202 1.58399,20.32812 l 1.58398,18.57617 -4.83984,3.62891 c -2.64074,2.00706 -6.86726,5.38072 -9.41992,7.55859 l -4.57618,3.92969 -1.4082,-1.49609 c -0.96827,-0.98218 -1.49609,-2.5621 -1.49609,-4.69727 0,-2.98923 3.25668,-38.43194 5.28125,-56.70898 0.44012,-4.44115 0.70326,-8.15678 0.61523,-8.24219 -0.17605,-0.0427 -3.60921,10.97502 -7.57031,24.55469 -5.98567,20.41221 -7.3936,26.13496 -8.00977,33.39453 -0.44012,4.82548 -1.31951,13.44989 -1.84765,19.21484 -0.7042,7.90013 -1.32026,11.18985 -2.64063,13.45313 -1.05629,1.83624 -1.49649,2.34883 -1.23242,1.28125 0.26407,-0.93948 0.70272,-2.136 0.9668,-2.64844 0.44012,-0.76866 0.26399,-0.89711 -1.23243,-0.68359 -1.49641,0.17081 -1.84725,-0.0432 -2.11132,-1.02539 -0.17605,-0.64055 -0.70455,1.15281 -1.05664,4.05664 -0.44013,2.86112 -0.88065,5.16743 -1.05664,5.08203 -0.17605,-0.0854 0.0872,-6.36196 0.52734,-14.00586 2.20061,-33.18052 6.95422,-101.5063 8.80273,-125.46289 0.52815,-6.44821 0.79311,-11.74272 0.70508,-11.82813 z m 492.67383,0.043 c -0.0526,0.0426 -2.32761,6.15088 -2.82422,7.40234 0.82351,0.0341 1.64805,0.0498 2.4707,0.0996 0.0623,-0.745 0.22372,-3.28737 0.26563,-3.66015 0.26407,-2.34869 0.26389,-4.09802 0.0879,-3.8418 z M 496.2168,234.39844 c -0.83744,0.83886 -4.4359,9.43135 -14.47071,33.90039 l -13.29297,32.66797 0.35352,9.60742 c 0.3521,8.45527 0.17597,9.95 -1.23242,12.59766 -2.55271,4.52655 -2.37805,4.39864 -4.22656,2.86132 -1.67247,-1.3238 -1.67186,-1.53583 0.88086,-23.01562 1.49641,-11.91424 3.25674,-26.30625 3.96093,-31.90039 0.7042,-5.63685 1.14467,-10.29128 1.05664,-10.33399 -0.088,-0.0854 -4.75328,11.99861 -10.29882,26.85938 -5.54555,14.86077 -10.29835,27.07501 -10.65039,27.20312 -0.26408,0.12811 -0.5293,0.76819 -0.5293,1.49414 0,0.68326 -1.49537,5.1249 -3.25586,9.82227 -2.46469,6.3201 -3.17019,9.3943 -2.99414,11.87109 0.17605,1.79354 0.0883,3.28907 -0.17578,3.28907 -0.26408,0 -1.58366,-1.11175 -3.08008,-2.43555 -1.40839,-1.36651 -4.66604,-4.14138 -7.21875,-6.14844 -5.54555,-4.44115 -5.54503,-4.2695 -2.9043,-17.46484 0.96827,-4.82548 1.9371,-10.12142 2.20117,-11.74414 l 0.52735,-2.99024 -2.72852,2.77735 -2.72851,2.77539 0.52734,-8.96875 c 0.26407,-4.95359 0.70468,-10.07685 0.96875,-11.44336 l 0.5293,-2.43555 h 4.48828 c 2.55271,0 4.13739,-0.16903 3.69726,-0.33984 -1.14432,-0.51244 -11.88423,-2.39321 -12.23632,-2.17969 -0.17605,0.0854 -1.23082,3.03374 -2.28711,6.57812 -1.14432,3.50168 -2.20104,6.19204 -2.28907,5.97852 -0.17605,-0.25622 -1.9365,-5.89323 -3.87304,-12.59766 -1.93654,-6.70443 -3.78489,-12.38414 -3.96094,-12.59765 -0.17605,-0.25622 -0.17623,1.10933 0.0879,2.98828 0.96827,7.77201 2.99219,30.44781 2.99219,33.99219 0,3.07464 -1.75998,10.59006 -2.9043,12.51171 -0.17605,0.21357 -1.23277,-0.29854 -2.28906,-1.19531 -1.14065,-0.85132 -2.18733,-1.5275 -2.28125,-1.44726 -6.9e-4,0.002 -8.8e-4,0.004 -0.002,0.006 -0.16889,0.0932 0.52555,1.27569 1.49024,2.67968 1.67247,2.34869 1.7611,2.90484 0.88086,6.44922 -0.61617,2.13517 -1.49529,4.90978 -2.02344,6.10547 l -0.96875,2.26367 -1.67383,-1.32422 c -1.00751,-0.79747 -1.24934,-3.01552 -1.1582,-7.78906 -0.45366,2.3576 -1.66286,4.15537 -3.87891,6.3086 -0.08,0.87349 -0.0881,1.72439 0.0234,2.5332 -5.37776,15.36131 -0.5253,2.89886 -5.23633,12.44922 -0.25528,1.5487 -0.65983,3.0735 -0.97851,4.61133 -0.22736,0.48242 -0.42563,0.97756 -0.66992,1.45117 0.002,4.78712 0.003,9.57422 0.006,14.36133 2.24733,-1.28614 5.5356,-1.67392 9.79297,-0.0508 13.50384,5.14841 14.47775,6.49742 28.06836,8.30079 1.69588,0.22503 3.48503,0.3203 5.13086,-0.14649 0.66932,-0.62654 1.33848,-1.25236 2.00781,-1.87891 -0.18876,-0.17243 -0.7875,-0.38941 -0.5664,-0.51757 2.64091,-1.52984 5.509,-2.62746 8.26367,-3.94141 1.85269,-0.0973 3.74453,-0.6796 5.55859,-0.29102 7.3914,1.58332 16.5214,5.49802 23.60352,8.56641 3.14298,1.36173 6.26326,2.77764 9.37695,4.20508 1.40669,0.64504 2.24978,1.189 2.87305,1.64648 9.18571,-3.88055 18.12234,-2.71361 28.48047,-2.66211 0.41026,0.002 1.89563,0.0379 2.49805,0.0449 l -0.43555,-9.66407 c -0.47768,-9.8101 -0.84677,-12.72555 -1.88281,-13.6582 -0.12114,0.0381 -0.26481,0.0791 -0.38477,0.11719 -0.23319,0.27214 -0.47052,1.59634 -0.54883,3.76172 -0.088,4.09952 -0.17679,3.92752 -0.79297,-2.39258 -0.0258,-0.27206 0.0145,-0.68875 -0.008,-0.96289 -5.29508,1.72569 -10.10361,3.50323 -21.15039,6.17578 -6.86906,1.66183 -13.83204,2.93746 -20.80273,4.10156 -3.64022,0.60792 -7.31377,1.14991 -11.00391,1.20899 -3.94216,0.0631 -7.86623,-0.56248 -11.79883,-0.84375 -0.73571,-0.18519 -1.46667,-0.38841 -2.19922,-0.58789 -0.63701,0.37937 -1.78488,0.42448 -3.67773,-0.0274 -6.27286,-1.49735 -7.03431,-0.99842 -1.93555,-14.07226 0.008,1.2076 1.43831,3.48005 2.92578,5.85937 3.03512,-5.48225 5.21478,-4.45326 1.09961,-6.02539 -2.15864,-0.82467 -3.2968,-0.9125 -3.76562,-0.50781 0.0747,-0.19084 0.12218,-0.31922 0.19922,-0.51563 0.55925,-1.4258 3.0746,0.0708 4.58203,0.3418 1.35526,0.24361 2.63482,0.79566 3.95312,1.19336 2.88194,0.27851 5.75359,0.81271 8.64649,0.8457 0.11076,-1.43425 0.0789,-2.52903 0.27343,-3.86914 l 0.61524,-5.55078 0.26562,7.38672 c 0.0159,0.73029 -0.035,1.31524 -0.041,2.01953 3.04791,-0.0787 6.0867,-0.48361 9.0957,-0.97851 13.54364,-2.2276 16.8169,-2.96776 20.63086,-4.13086 -1.71607,-2.41256 -1.57342,-5.15399 -0.375,-19.24414 0.96827,-12.25592 3.87428,-49.91959 5.63477,-72.8086 0.70419,-9.52285 1.49582,-18.36343 1.67187,-19.64453 0.19806,-1.14232 0.22641,-1.72493 -0.0527,-1.44531 z m 42.3164,0.0586 c -0.47881,-0.0519 -0.19828,4.95917 0.95703,18.89649 0.7042,8.79689 2.11181,26.38936 3.08008,39.07226 0.96827,12.6829 2.2005,27.58697 2.64063,33.0957 0.36003,3.75532 0.45878,7.18319 0.59961,10.59571 1.20846,-0.006 2.41774,-0.0597 3.625,-0.0117 3.03348,0.12051 6.01423,0.5654 9.05078,0.64258 1.14221,0.0291 2.28327,-0.0274 3.42578,-0.041 2.19708,-0.1763 4.40398,-0.26159 6.5918,-0.5293 10.38527,-1.27076 4.31584,-1.45088 16.87109,-2.08789 2.27817,-0.11558 4.55939,0.10958 6.83984,0.22852 -0.46988,-2.38018 -1.23236,-5.17279 -2.63867,-8.83984 -1.67246,-4.56926 -2.99245,-8.79695 -2.8164,-9.4375 0.26407,-0.64055 0.0866,-1.06757 -0.35352,-0.93946 -0.3521,0.12811 -0.70312,0.17155 -0.70313,0.0859 0,-0.89677 -20.24542,-53.84898 -20.68554,-54.0625 -0.26408,-0.12811 -0.26408,0.51143 0,1.4082 0.26407,0.93948 2.11229,15.28905 4.04883,31.94336 3.52098,29.93506 3.60801,30.23257 1.93554,31.51367 l -1.75976,1.28125 -1.9375,-3.33007 c -1.84852,-3.07465 -1.93582,-3.97182 -1.75977,-13.58008 l 0.17578,-10.24805 -13.29101,-32.24219 c -7.30604,-17.72189 -13.46848,-32.62401 -13.64453,-33.09375 -0.099,-0.20284 -0.18356,-0.31289 -0.25196,-0.32031 z M 649.21289,235 c -2.38384,6.28953 -2.76749,7.10748 -5.94141,15.57617 l -13.73242,36.72656 1.05664,21.22266 1.05664,21.22266 -1.84961,1.41015 c -0.96827,0.76866 -1.84765,1.19568 -1.84765,0.93946 0,-0.25622 -0.79332,-2.8618 -1.84961,-5.76563 -1.93654,-5.50873 -1.84871,-5.97752 1.4082,-10.8457 0.3521,-0.46974 -0.26402,-0.21424 -1.32031,0.51172 -1.0563,0.76866 -2.20064,1.41015 -2.55274,1.41015 -0.35204,0 -1.40686,-2.39135 -2.2871,-5.33789 -1.49642,-5.16711 -1.49696,-5.76609 0.35156,-24.38476 0.96827,-10.50503 1.76003,-19.1741 1.58398,-19.2168 -0.17605,-0.0854 -1.76086,4.998 -3.60937,11.27539 -4.40123,15.54403 -3.9611,15.03 -6.42578,7.59961 -1.14432,-3.50168 -2.20077,-6.44806 -2.46485,-6.57617 -0.44012,-0.25622 -11.08992,1.58157 -12.32226,2.13672 -0.44013,0.17081 1.40795,0.33984 4.13672,0.33984 h 4.84179 l 0.61524,9.9082 c 0.3521,5.46604 0.79256,10.71873 1.05664,11.65821 0.3521,1.62272 0.26418,1.53717 -2.64063,-1.28125 -3.34493,-3.33087 -3.5214,-3.24524 -2.28906,1.92187 1.93654,8.36986 3.52148,17.72144 3.52148,20.66797 0,2.59264 -0.68691,3.47993 -3.4707,5.76758 0.32159,-0.0691 0.35519,-0.15104 0.72266,-0.2168 0.6127,-0.10964 1.17487,-0.17476 1.69726,-0.20312 3.65674,-0.19852 5.36449,1.4456 8.80078,2.85547 6.79182,2.78661 5.33907,2.19944 11.875,3.39843 2.86765,0.34561 5.72024,0.83318 8.60157,1.03516 2.34591,0.16441 4.7031,0.0459 7.05468,0.0625 4.66925,0.0333 9.3408,0.063 14.01172,0.0566 v -0.54297 c 0,-3.88601 -0.70328,-6.83304 -3.16797,-13.28125 -3.69703,-9.77907 -3.60908,-7.89879 -1.23242,-41.5918 0.96827,-13.40885 2.37588,-32.79659 3.08008,-43.13086 0.15501,-2.27482 0.21882,-2.88329 0.36914,-5.07617 -2.27567,-0.14875 -4.55709,-0.19496 -6.83789,-0.25195 z m 353.37501,0.20312 c -0.5282,-0.98217 -0.1761,7.68731 1.3203,28.39844 l 1.0547,14.73242 -5.01759,16.61133 c -2.72876,9.13852 -5.01731,16.69753 -5.19336,16.74024 -0.17605,0.0854 -4.57608,-11.31583 -9.76953,-25.36524 -5.19345,-14.0067 -9.68319,-25.58087 -9.94726,-25.70898 -0.17605,-0.12811 -0.17624,0.9404 0.0879,2.34961 0.3521,1.40921 1.76153,12.72593 3.16992,25.19531 1.49642,12.42668 3.07941,25.4941 3.51953,28.95313 1.23234,9.18122 1.14438,9.65083 -1.32031,5.63671 -4.31321,-7.08876 -16.72327,-22.76101 -17.60352,-22.33398 -0.17605,0.0854 0.26274,2.51831 0.87891,5.46484 0.70419,2.94654 2.289,11.06084 3.60937,18.02149 2.37667,12.6829 2.37768,12.68401 0.61719,14.00781 l -0.67773,0.50781 c 1.26169,-0.33305 2.5165,-0.7122 3.81054,-0.84961 4.47746,-0.47545 8.99142,-0.75137 13.49219,-0.62109 4.3796,0.12677 8.7017,1.08004 13.07227,1.38867 2.62718,0.18552 2.92908,0.12477 4.99998,0.26172 0.1043,-7.16848 0.4448,-15.9278 1.0391,-22.68164 1.7605,-20.02788 2.113,-23.27291 2.289,-23.1875 0.1761,0.0854 0.7043,5.8934 1.2325,12.93945 0.5281,7.04606 1.4093,18.57699 1.9375,25.62305 l 0.5273,7.67578 c 6.1876,0.31963 14.4634,0.52408 20.1777,0.40625 0.4143,-0.90209 0.7906,-1.73313 1.3887,-2.95898 1.8485,-4.01412 3.6969,-7.89931 3.9609,-8.66797 0.2641,-0.76866 0.617,-1.32369 0.793,-1.23828 0.1346,0.0652 0.9347,6.6054 1.6797,12.72461 2.1371,-0.0491 2.5358,-0.0436 5.3027,-0.0957 5.0306,0.001 10.0611,0.0232 15.0918,0.004 -0.1565,-0.14601 -0.2836,-0.18898 -0.5097,-0.50586 -0.5282,-0.68325 -0.9668,-2.09284 -0.9668,-3.20313 0,-1.06758 -1.5851,-5.93428 -3.4336,-10.75976 -4.4893,-11.3591 -8.0988,-20.92511 -16.3731,-43.13086 -7.0419,-19.25922 -8.5382,-22.67562 -7.834,-17.93555 0.1761,1.53732 1.7612,14.47589 3.4336,28.82422 1.6725,14.30563 3.1677,26.94662 3.3438,28.09961 0.3521,1.79354 -0.087,2.30525 -3.5195,4.91016 l -3.961,2.86133 0.5274,-10.24805 c 0.3521,-5.63685 0.6152,-11.87185 0.6152,-13.87891 0.088,-3.03194 -2.112,-9.01067 -13.2031,-35.87109 -7.218,-17.7219 -13.3785,-32.62592 -13.6426,-33.09571 z m -230.27931,0.39063 c -0.28351,-0.60203 -4.2144,8.35136 -14.16601,32.70508 l -13.29102,32.66797 0.52735,13.66601 0.61718,13.66407 -3.69726,-2.7754 c -4.48925,-3.33086 -4.48944,1.23806 0.0879,-36.51171 1.84851,-15.50133 3.34388,-28.22683 3.25586,-28.26954 -0.17605,-0.0427 -5.10418,12.93857 -11.08985,28.82422 -5.98567,15.88566 -12.06035,31.77203 -13.46875,35.31641 -1.40839,3.50168 -2.81573,8.1143 -3.25586,10.16406 -0.79217,3.92871 -2.20165,5.55056 -3.16992,3.62891 -0.26407,-0.55515 0.26402,-3.202 1.32032,-5.84961 1.05629,-2.64761 1.76016,-4.91064 1.49609,-4.9961 -0.17605,-0.0854 -1.93664,1.40896 -3.78516,3.41602 l -3.34375,3.58594 -4.13672,-3.28711 -4.04882,-3.24609 1.14257,-6.40626 c 0.7042,-3.54437 1.84854,-9.39365 2.55274,-13.02343 1.76049,-8.71149 1.67266,-8.79624 -1.4082,-5.55078 l -2.64063,2.77539 0.5293,-9.39453 c 0.26407,-5.16711 0.70272,-10.29233 0.96679,-11.44532 l 0.5293,-2.00781 h 4.48828 c 2.55271,0 4.13739,-0.16903 3.69727,-0.33984 -1.14432,-0.46974 -11.88228,-2.39321 -12.23438,-2.17969 -0.088,0.0854 -2.9052,8.32772 -6.16211,18.32031 -3.2569,9.99259 -5.98606,18.31969 -6.16211,18.5332 -0.088,0.21357 -1.14487,-0.29854 -2.20117,-1.19531 -1.14432,-0.85406 -2.2009,-1.49556 -2.37695,-1.41015 -0.17605,0.0854 0.52964,1.41021 1.58594,2.99023 l 1.93554,2.86133 -2.11132,6.32031 c -1.26991,3.55642 -1.78665,6.82069 -2.14063,11.25391 8.09551,-0.15854 16.17109,-0.21626 24.26758,0.69336 1.90772,0.21432 3.62412,1.36217 5.52734,1.61328 1.01481,0.13388 2.0487,1.5e-4 3.07227,0 7.18315,-0.0113 14.36668,-0.0939 21.54883,0.0508 0.32805,-3.35629 0.58971,-6.52389 1.15429,-10.53711 l 0.5293,-4.01367 3.87305,7.64258 c 1.50644,3.00021 2.33566,4.92168 2.99218,6.82422 6.48651,-0.0749 12.97318,-0.14749 19.45899,-0.25391 l 0.69922,-9.55859 c 0.52814,-7.25963 1.31964,-17.76471 1.75976,-23.27344 0.52815,-5.50874 0.96875,-11.18845 0.96875,-12.59766 0.066,-1.0142 0.13802,-1.62343 0.22461,-1.79687 0.25978,-0.52033 0.65504,2.87555 1.44727,10.97851 0.44012,5.50874 1.14413,12.81029 1.4082,16.22656 0.44302,5.17956 0.66111,13.26862 0.6582,19.91211 0.23384,-8e-5 0.46733,-0.0121 0.70118,-0.0117 2.74095,0.18975 5.4913,0.27045 8.22265,0.56835 11.44521,1.2483 -5.4943,0.92904 13.69141,1.61329 3.38559,0.12075 6.77452,-0.14806 10.16211,-0.11329 5.32959,0.0548 7.09381,0.12871 9.65039,0.19532 0.0739,-1.05686 0.27196,-2.28829 0.83789,-4.86914 0.79222,-3.54438 2.20165,-9.18113 3.16992,-12.55469 0.96827,-3.37357 1.58407,-6.19194 1.4961,-6.27734 -0.17605,-0.0854 -1.05531,1.15239 -1.93555,2.73242 -0.79222,1.58002 -3.34626,6.19318 -5.54688,10.25 l -4.04883,7.38672 -1.75976,-1.32227 -1.76172,-1.32422 2.81836,-15.03125 c 1.58444,-8.28445 3.1673,-16.35605 3.60742,-18.02148 0.44012,-1.62273 0.61732,-3.03178 0.5293,-3.11719 -0.88025,-0.42703 -11.70694,13.0672 -16.90039,21.05273 l -3.08203,4.69727 0.52929,-4.48438 c 0.96827,-8.8823 6.51301,-55.77089 6.95313,-58.5039 0.3521,-2.4768 0.35277,-2.60373 -0.43945,-1.06641 -0.52815,0.93948 -4.92987,12.55324 -9.94727,25.83399 -6.68987,17.7646 -9.15558,23.7431 -9.5957,22.63281 -0.26408,-0.81137 -2.64078,-8.4967 -5.10547,-17.08008 l -4.57617,-15.58789 1.49609,-20.71094 c 0.74309,-10.69472 1.49957,-19.02699 1.81641,-20.82812 -0.18756,0.0187 -0.32045,0.034 -0.50977,0.0527 0.10141,-0.45897 0.13621,-0.74017 0.0957,-0.82617 z m -249.42968,25.66602 c -0.22314,-0.60456 -1.41281,2.02132 -3.19532,7.33789 -1.14432,3.33086 -2.28879,5.97798 -2.46484,5.89257 -0.26407,-0.12811 -1.49604,-3.03126 -2.81641,-6.49023 -2.90481,-7.47309 -3.16869,-6.36215 -1.4082,6.70508 l 1.14453,8.32617 -3.87305,10.41992 c -2.11253,5.76496 -3.96066,10.50444 -4.13671,10.58985 -0.088,0.0854 -2.55227,-7.89867 -5.45703,-17.67774 -2.81679,-9.82177 -5.28307,-17.38105 -5.3711,-16.7832 -0.17605,0.59785 0.8808,12.38312 2.20117,26.26172 l 2.46485,25.19531 -2.55274,6.61914 c -2.37666,6.3628 -2.46538,7.00271 -2.11328,16.86719 0.0138,0.55499 -0.005,0.67474 0.006,1.17773 2.87527,-0.86893 6.70731,-1.97804 12.8125,-3.57812 1.8706,-0.49026 3.74701,-0.96332 5.61914,-1.45117 0.33356,-4.46581 0.70639,-9.05094 1.54492,-16.64454 0.6932,-6.19732 1.15133,-9.99321 1.625,-10.70898 0.15789,-0.23859 0.31774,-0.13514 0.48828,0.33594 0.68219,1.88428 1.53952,9.64552 3.16797,24.89062 0.009,0.0918 8.7e-4,0.2727 0.01,0.36719 4.04716,-0.99816 8.10925,-1.9292 12.20312,-2.70703 1.9698,-0.37425 3.99972,-0.14659 6.01172,-0.0957 -0.21838,-2.7001 -0.72737,-4.95473 -2.02734,-8.4961 l -2.37695,-6.66211 2.37695,-24.72461 c 1.23234,-13.57967 2.28724,-25.3226 2.19922,-26.00586 0,-0.72595 -2.37658,6.49029 -5.19336,15.92774 -2.90481,9.48015 -5.28098,17.42346 -5.45703,17.67968 -0.17605,0.21357 -2.02413,-4.22865 -4.13672,-9.9082 l -3.87305,-10.37695 1.05664,-9.00977 c 0.52815,-4.95359 1.23221,-10.16305 1.4082,-11.57226 0.15405,-0.93948 0.18767,-1.49966 0.11329,-1.70117 z m -127.01953,3.17968 c 0.03,-0.15917 -0.11352,0.67723 -0.19141,1.06641 0.002,0.005 0.004,0.0104 0.006,0.0156 0.0645,-0.37887 0.14018,-0.84214 0.18555,-1.08203 z m 0.21093,2.20899 c -0.007,0.003 -0.013,0.007 -0.0195,0.01 0.002,0.007 0.002,0.0145 0.004,0.0215 0.008,-0.0213 0.007,-0.009 0.0156,-0.0312 z m 458.01953,2.33398 c -0.26407,-0.12811 -0.35183,0.38368 -0.17578,1.15235 0.17605,0.76866 1.49591,14.22097 2.9043,29.97851 1.49642,15.71484 2.81614,30.1484 2.99219,32.02734 0.26407,3.20281 -1.14381,6.61915 -2.9043,6.61915 -0.26407,0 -2.46513,-1.66535 -4.8418,-3.75782 -2.46468,-2.04976 -6.60145,-5.33838 -9.24218,-7.30273 l -4.75391,-3.58789 1.58594,-20.24024 c 0.88024,-11.10287 1.40847,-20.28373 1.23242,-20.36914 -0.17605,-0.0854 -2.90534,-0.29989 -6.07422,-0.4707 l -5.63477,-0.29883 2.37696,1.41016 c 5.80962,3.50167 5.63487,2.73172 2.99414,10.16211 -1.32037,3.67249 -5.19405,14.26266 -8.62695,23.52929 -5.63358,15.24511 -6.16265,17.2524 -5.81055,21.09571 0.17162,1.79011 0.18117,2.89251 -0.0215,3.78906 3.04742,0.1739 5.89447,0.44102 12.82618,0.99414 1.26603,0.0998 2.53303,0.17658 3.79882,0.27734 0.11404,-1.82458 0.16635,-3.95995 0.29883,-5.44531 0.17605,-1.40921 0.26354,-3.96986 0.35156,-5.7207 0.088,-1.75084 0.26341,-3.07564 0.43946,-2.99024 0.17605,0.0854 2.37711,4.65533 4.84179,10.16407 1.11026,2.42377 1.32787,3.13306 1.9375,4.5664 6.53877,0.51075 13.07426,1.06477 19.625,1.43164 2.62853,0.14722 4.84308,0.21756 7.125,0.29297 -0.13891,-1.31512 -0.2874,-2.05281 -0.43164,-3.68554 -2.20061,-25.57932 -2.28784,-25.96546 -9.50586,-50.26368 -3.78505,-12.7256 -7.04256,-23.27201 -7.30664,-23.35742 z m 66.01758,2.26367 c -0.088,-1.02488 -3.25596,8.49679 -7.04101,21.17969 -7.39407,24.38363 -7.30707,24.00064 -9.59571,50.81836 -0.0135,0.15315 -0.0238,0.17047 -0.0371,0.32031 9.36042,-1.3426 18.74879,-2.65582 28.16797,-3.35351 0.0693,-0.15488 0.0535,-0.13906 0.125,-0.29883 2.55271,-5.55144 4.66575,-10.07786 4.8418,-10.03516 0.088,0.0854 0.441,3.37456 0.70508,7.38867 0.0671,0.99252 0.0721,1.5751 0.13281,2.54297 2.75407,-0.10232 5.50653,0.25008 8.26172,0.33203 2.93929,0.0875 5.87979,0.18577 8.82031,0.18165 2.7e-4,-0.48004 -0.0819,-0.76156 -0.0508,-1.34961 0.17605,-3.7579 -0.70467,-6.74613 -7.39453,-24.98047 -4.22518,-11.4018 -8.09867,-21.99393 -8.71485,-23.53125 l -1.05468,-2.81836 3.69726,-2.30469 c 2.11259,-1.2384 3.69558,-2.34819 3.51953,-2.43359 -0.17604,-0.0854 -2.72786,-8.9e-4 -5.7207,0.16992 -5.28147,0.25622 -5.36914,0.29924 -5.36914,1.62305 0,0.72595 0.61598,9.86384 1.4082,20.32617 l 1.4961,19.0039 -6.60157,5.12305 c -3.60895,2.81842 -7.7459,6.15001 -9.15429,7.3457 -1.40839,1.2384 -2.81796,2.26368 -3.08203,2.26368 -0.3521,0 -1.14346,-0.72628 -1.84766,-1.62305 -1.49642,-1.83625 -1.58543,0.68407 1.93555,-36.63867 1.49641,-15.07429 2.64076,-28.26978 2.55273,-29.25196 z m -520.94922,1.23438 c -0.0108,0.6657 -0.026,1.37014 -0.0312,2.21875 9e-5,1.65154 0,3.30353 0,4.95508 l -0.006,3.94336 c 5e-5,1.00454 -10e-6,2.00913 0,3.01367 0.14331,0.005 0.29936,0.0128 0.4375,0.0176 1.32837,-0.0459 2.9868,-0.14185 4.82422,-0.27735 z m 675.4336,8.24414 c -0.3521,-0.21352 -11.0921,1.66725 -12.1484,2.17969 -0.5282,0.17081 1.0566,0.33984 3.6093,0.33984 h 4.4883 l 0.4414,1.79492 c 0.3521,1.02488 0.7926,6.14814 1.0567,11.44336 l 0.5273,9.60938 -2.6406,-2.77539 c -3.0809,-3.24546 -3.1687,-3.16071 -1.4082,5.55078 0.7042,3.62978 1.8485,9.47906 2.5527,13.02343 l 1.1445,6.40626 -4.0488,3.24609 -4.1387,3.28711 -3.3437,-3.58594 c -1.8485,-2.00706 -3.6091,-3.54413 -3.7852,-3.41602 -0.176,0.0854 0.5279,2.4765 1.4961,5.29493 1.4084,3.71519 1.6728,5.3377 1.0567,5.93554 -0.075,0.0585 -0.098,0.0299 -0.1641,0.0781 5.8361,-0.0202 11.6725,-0.0778 17.5078,0.006 2.5451,0.0365 9.4902,0.38646 15.3828,0.60156 -0.2734,-5.31387 -0.7113,-8.81745 -2.0058,-12.64258 l -2.2012,-6.32031 1.9375,-2.81836 c 1.0563,-1.58002 1.76,-2.90483 1.584,-2.99023 -0.1761,-0.0854 -1.2326,0.55609 -2.377,1.41015 -1.0563,0.89677 -2.1131,1.40888 -2.2011,1.19531 -0.1761,-0.21351 -2.9052,-8.54061 -6.1621,-18.5332 -3.257,-9.99259 -5.9842,-18.2349 -6.1602,-18.32031 z m -808.47266,14.96875 c 0.45113,0.41636 0.84699,4.61084 1.28711,12.70312 0.3521,5.55144 0.7927,11.40293 0.96875,13.06836 0.17605,1.62273 0.6147,7.38722 0.9668,12.81055 l 0.52929,9.82227 -3.08203,3.41601 c -1.67246,1.87895 -3.25546,3.71502 -3.51953,4.05664 -0.96827,1.15299 8e-5,-33.18064 1.23242,-45.90625 0.66019,-7.0247 1.16606,-10.38706 1.61719,-9.9707 z m 851.16406,22.22656 c -0.088,-0.34163 -4.8422,8.11409 -11.0039,19.5586 -0.3612,0.64704 -0.9596,1.95164 -1.3887,2.76367 2.9583,0.11974 3.7715,0.13951 6.6582,0.25976 0.047,-0.22082 0.054,-0.23873 0.1016,-0.46093 1.2323,-5.76496 3.0807,-13.02524 3.9609,-16.14258 0.9683,-3.16005 1.7599,-5.85041 1.6719,-5.97852 z m -460.01562,0.3418 c -0.26408,-0.12811 -0.26408,0.25567 0,0.85351 0.78676,1.64125 3.32707,11.39218 5.19336,19.68165 2.08459,-0.024 4.16814,-0.0866 6.25195,-0.14454 -5.41551,-10.49857 -10.64216,-20.04428 -11.44531,-20.39062 z m 297.52148,0.59766 c -0.17605,0.0854 0.43994,2.90377 1.40821,6.27734 0.96827,3.37356 2.46572,9.05354 3.16992,12.64062 0.24862,1.10062 0.20191,1.27118 0.36133,2.03907 1.4884,-0.21892 2.98037,-0.41761 4.45703,-0.70313 0.59395,-0.11483 1.18393,-0.24436 1.77148,-0.39453 l -1.74805,-3.24805 c -1.14431,-2.04976 -2.90464,-5.29488 -3.96093,-7.17382 -1.14432,-1.879 -2.72927,-4.82507 -3.52149,-6.53321 -0.88024,-1.70813 -1.76145,-3.03246 -1.9375,-2.90429 z m -659.22656,8.4121 c 0.20894,-0.14965 0.36288,0.1071 0.62695,0.6836 0.3521,0.64055 1.32106,7.81409 2.11328,15.92773 0.79223,8.11364 1.32058,15.28967 1.14454,16.01563 -0.26408,0.68325 -0.52903,-0.17104 -0.70508,-1.92188 -0.088,-1.75084 -0.43919,-2.77611 -0.61524,-2.26367 -0.3521,0.85407 -0.96898,0.98242 -4.66601,0.98242 -3.34494,0 -4.31392,-0.17168 -4.66602,-0.76953 -0.17605,-0.38433 -0.6147,1.19624 -0.9668,3.54492 -1.05624,7.08876 -1.23309,6.06399 -0.79296,-4.69726 0.44012,-9.73637 0.61667,-10.58979 3.52148,-16.86719 1.67247,-3.62979 3.43266,-7.64441 4.04883,-8.88281 0.48413,-1.04624 0.74809,-1.6023 0.95703,-1.75196 z m -99.04883,4.36719 c 0.73721,0.91812 0.86965,5.81898 1.17774,15.66211 0.26407,7.38768 0.17398,12.2131 -0.0898,10.67578 -0.3521,-1.53732 -0.70299,-2.43511 -0.79101,-2.05078 -0.088,0.42703 -0.7919,0.76953 -1.4961,0.76953 -1.67246,0 -1.67246,0.29922 0,2.5625 0.7042,1.02488 1.14285,1.92046 0.9668,2.00586 -0.17605,0.0854 -1.23081,-1.06646 -2.28711,-2.64648 -1.76049,-2.60491 -1.84899,-3.11904 -0.96875,-7.81641 0.52815,-2.73301 1.23202,-5.97787 1.49609,-7.13086 1.0563,-3.886 -0.61579,-1.66578 -2.8164,3.71485 -1.14432,2.86112 -2.11315,5.33868 -2.20117,5.46679 0,0.12811 -0.52823,-0.47015 -1.23243,-1.32422 -1.05629,-1.40921 -0.79158,-2.34886 3.4336,-11.6582 2.72876,-6.08523 4.07139,-9.14859 4.80859,-8.23047 z m 264.19336,4.38672 c 0.52815,0.25622 0.61599,1.32454 0.0879,2.94727 l -0.79101,2.5625 -0.0879,-2.99024 c -0.088,-1.92165 0.17484,-2.81845 0.79101,-2.51953 z m 740.02347,0.68359 c 0.176,0.64055 0.176,1.79384 0,2.5625 -0.1761,0.76867 -0.3516,0.25687 -0.3516,-1.15234 0,-1.40921 0.1755,-2.05071 0.3516,-1.41016 z m -360.90042,5.4668 c -0.44012,0 -0.61577,0.42701 -0.26367,0.93945 0.0417,0.0877 0.17509,0.89346 0.23632,1.09961 0.48937,0.0389 0.9794,0.0686 1.46875,0.10743 -0.63257,-1.24012 -1.18883,-2.14649 -1.4414,-2.14649 z m -505.34961,0.42774 c 0.17605,0 0.35156,0.81079 0.35156,1.79296 -0.088,1.45192 -0.2626,1.66452 -0.9668,1.10938 -0.70419,-0.64055 -0.26501,-2.90234 0.61524,-2.90234 z m 67.42773,2.77539 1.23242,2.30468 c 1.14432,2.00706 1.14432,2.47725 0,3.84375 -1.32031,1.53733 -1.32031,1.49592 -1.32031,-2.30468 z m 203.39844,0.0644 c -0.26449,-0.0819 -0.83255,0.63873 -0.55664,0.61719 0.34573,-0.027 0.85691,-0.14651 1.40039,-0.29297 -0.27899,-0.113 -0.55552,-0.23502 -0.84375,-0.32422 z m 650.51366,6.8457 c -0.063,-0.26606 -0.1181,-0.0775 -0.1621,0.64844 -0.176,2.30598 -0.4413,4.35511 -0.5293,4.61133 -0.036,0.0881 -0.1102,0.97311 -0.1816,1.44531 0.7546,1.76713 1.0545,3.97096 0.5254,6.6582 -0.5574,2.83049 -0.1185,6.06132 -1.6719,8.49219 -6.6101,10.34375 -6.9242,9.09357 -15.002,9.0918 -2.5771,-0.0258 -5.2277,0.14569 -7.8222,-0.0391 -2.6296,1.36027 -2.9751,0.91525 -7.0137,0.36523 0.5468,0.12236 1.0938,0.24494 1.6406,0.36719 0.2981,0.0877 -0.6116,-0.12368 -0.9219,-0.14258 -0.5996,-0.034 -1.2347,0.18743 -1.8007,-0.0137 -0.2329,-0.0829 -0.1542,-0.47157 -0.2305,-0.70703 -0.7289,0.45607 -1.4567,0.91306 -2.1856,1.36914 -2.2818,0.33263 -4.5638,0.66545 -6.8457,0.99804 0,-0.008 0.027,-0.0242 0.016,-0.0273 -0.24,-0.0743 -0.5255,-0.0543 -0.7305,-0.19141 -1.375,1.00879 -3.044,2.23949 -4.4609,2.71289 -5.7814,1.93157 -10.9761,0.36146 -16.9434,0.69141 -2.4574,0.11074 -4.9222,0.0992 -7.3711,0.33203 -18.4772,1.75635 11.8391,0.0905 -14.2539,1.79102 -9.3023,0.60631 -0.7341,-0.99376 -12.4375,0.45898 -2.0406,0.25327 -4.0325,0.8077 -6.0488,1.21094 -3.041,0.38702 -6.0666,0.92469 -9.1231,1.16016 -1.6541,0.12737 -3.3179,-0.0402 -4.9765,-0.0742 -5.0069,-0.10538 -10.0458,-0.54002 -15.0508,-0.5918 -0.3034,-0.003 -0.5979,0.10649 -0.8965,0.16016 -2.0792,0.55207 -4.0595,1.53924 -6.1934,1.8125 -5.1741,0.66243 -7.4108,0.1077 -12.2343,-1.1875 -10.1923,-2.73676 -9.4528,-2.68115 -18.8028,-6.08008 -22.0617,-5.07938 -10.3863,-3.27587 -32.5429,-4.93945 -5.8197,-0.43697 -11.6428,-0.85365 -17.4571,-1.35743 -0.093,-0.008 0.1645,-0.0882 0.2461,-0.13281 -0.7818,0.0162 -1.5638,0.0337 -2.3457,0.0488 -1.4232,0.19117 -2.8177,0.55657 -4.2265,0.83398 -8.6164,1.49152 -17.2124,2.6966 -25.8965,3.77539 -3.72988,0.46334 -7.46146,0.90076 -11.19729,1.3125 -3.28925,0.3625 -6.63004,0.3708 -9.87696,1.00977 -1.38115,0.27182 -2.57791,1.13027 -3.86718,1.69531 -2.13536,0.34965 -4.24924,0.87762 -6.40625,1.04883 -2.22652,0.17764 -4.46766,-0.019 -6.70118,-0.008 -9.11769,0.0408 -18.22034,0.47499 -27.33789,0.48633 -2.76419,-0.24598 -5.53778,-0.39019 -8.29101,-0.73829 -1.47787,-0.18689 -2.24174,-2.96518 -4.33008,-1.11132 -1.74486,-0.16857 -3.50624,-0.0387 -5.25586,-0.14454 -9.00816,-0.54552 -8.16327,-0.5836 -16.37891,-1.77929 -2.17995,-0.32323 -4.33945,-0.83539 -6.53906,-0.97071 -1.10014,-0.0676 -8.28182,1.76393 -8.61328,1.77149 -3.50181,0.0725 -8.36522,-1.83473 -11.48828,-2.83789 -0.36144,-0.10859 -13.1068,-4.03416 -15.34961,-4.43555 -11.43349,-2.04608 -14.0909,-1.9767 -25.80078,-1.73633 -21.40966,0.43949 -17.53679,0.39528 -36.63867,2.2793 -3.85164,0.32474 -17.95119,1.96567 -24.94532,1.6875 -2.80842,-0.11166 -5.61325,-0.33589 -8.41015,-0.61719 -0.0949,-0.0339 -0.0318,-0.0135 -0.22656,-0.082 -0.0261,-10e-4 -0.0386,0.003 -0.0645,0.002 0.11629,0.0374 0.14154,0.0455 0.23633,0.0762 -0.23902,-0.0241 -0.47988,-0.0274 -0.71875,-0.0527 -0.008,-8.5e-4 -0.0244,-0.0122 -0.0332,-0.0137 -4.22473,-0.0727 -5.23737,0.87707 -9.74805,1.76563 -2.97078,0.58526 -5.96678,1.08686 -8.98437,1.33593 -5.76465,0.47418 -11.5967,-0.66062 -17.35352,0.004 -4.30747,-2e-5 -6.21353,0.31401 -7.2793,-0.53711 -0.0712,0.16801 -0.10159,0.34497 -0.1875,0.50977 -4.27823,8.20686 -28.49924,-16.38558 -27.76367,0.0664 -32.01233,0.0497 -64.0247,0.11103 -96.03125,-0.40429 -3.32931,0.093 -6.66333,0.0544 -9.98633,0.27929 -1.54149,0.1044 -5.30984,0.85235 -8.05859,1.25195 -1.75315,0.75004 -3.48925,1.53914 -5.26172,2.24219 -0.46541,0.18293 -1.01349,-0.0786 -1.50195,0.0312 -3.05178,0.68625 -6.11172,2.03242 -9.32032,1.55469 -0.65374,0.008 -1.32329,-0.12482 -1.96093,0.0195 -0.89106,0.20179 -1.68981,0.69852 -2.55078,1.00391 -1.37095,0.48657 -2.73766,0.99389 -4.14258,1.37109 -0.89515,0.24038 -4.75091,0.12951 -4.78906,0.12891 -1.80159,-0.0287 -3.60305,-0.0886 -5.4043,-0.13281 -6.851,-0.13498 -21.91039,-0.44501 -28.33789,-0.50586 -5.44649,-0.0515 -10.89404,-0.15093 -16.33985,-0.0508 -1.08257,0.0199 -2.14587,0.52392 -3.22265,0.41016 -0.43219,-0.0457 -0.56912,-0.98359 -0.98438,-0.85547 -2.21042,0.68236 -4.14545,2.0539 -6.21875,3.08008 -2.06683,-0.25731 -4.19031,-0.23089 -6.20117,-0.77344 -1.53154,-0.41321 -2.8493,-1.39698 -4.29101,-2.05859 -8.89595,-4.08216 -17.91682,-8.0831 -27.08985,-11.50977 -0.47766,-0.17839 -0.99944,-0.19388 -1.5,-0.29101 -0.25459,-0.42989 -0.34942,-1.5673 -0.76562,-1.29102 -8.93356,5.93258 0.78891,5.47224 -12.99805,8.21289 -2.61725,0.52048 -5.3627,0.23596 -8.00391,-0.14453 -14.78366,-2.1295 -16.31606,-3.61589 -30.32031,-8.95508 l 0.002,-0.002 c -2.00187,-0.76322 -3.46122,-1.74255 -4.66406,-2.79297 -1.7e-4,0.528 2.9e-4,1.05599 0,1.58399 0.038,2.76031 0.16966,5.05821 -0.84375,7.57031 0.0109,2.6793 0.0264,5.35795 0.0586,8.03711 0.0223,7.65585 -0.51839,15.30112 -0.14649,22.95508 0.65511,8.95899 1.97522,18.01094 -0.0606,26.89453 -0.45607,1.99042 -2.33109,6.08222 -3.6875,8.99804 84.35671,0.0948 106.58023,0.24024 314.70899,0.24024 h 561.06841 v -7.08985 c 0,-5.72225 -0.264,-7.1731 -1.3203,-7.68554 -1.1443,-0.59785 -1.3203,-0.46976 -1.3203,0.93945 0,0.89677 -0.1775,1.49361 -0.3536,1.4082 -1.0562,-0.51244 -3.1678,-28.56749 -3.2558,-43.51367 -0.1541,-17.71122 -0.9815,-41.83094 -1.4219,-43.69336 z m -826.71288,1.63086 c 0,-0.72596 1.14421,0.683 2.64063,3.41602 1.40839,2.5622 2.28751,4.99626 2.02343,5.33789 -0.61617,0.81136 -4.75208,-7.00307 -4.66406,-8.75391 z m 175.51953,0.16992 c 0.13339,-0.0421 0.22162,0.0423 0.26563,0.25586 0.088,0.72596 -0.70529,3.07435 -1.84961,5.29492 -1.23235,2.17793 -2.37642,3.80115 -2.72852,3.54493 -0.26407,-0.25622 0.52924,-2.60456 1.84961,-5.29493 1.25435,-2.40206 2.06273,-3.67451 2.46289,-3.80078 z m 434.48245,3.87305 c -0.049,0.45096 0.2911,2.95941 0.1836,3.13086 -0.7042,1.11029 -0.7916,0.80989 -0.4395,-1.49609 z m -303.65823,0.76367 0.15821,0.95703 c 0.35204,2.60491 0.26265,2.90336 -0.35352,1.49414 -0.0627,-0.12171 0.23326,-2.16728 0.19531,-2.45117 z m 163.35547,2.53711 c 0.17605,0.29893 0.17605,0.89692 0,1.28125 -0.26407,0.42704 -0.44141,0.17154 -0.44141,-0.51172 0,-0.72595 0.17734,-1.02575 0.44141,-0.76953 z m -600.32812,0.42774 c 0.17604,0.29892 0.17604,0.81018 0,1.0664 -0.26408,0.29893 -0.43946,0.0861 -0.43946,-0.51172 0,-0.59784 0.17538,-0.8109 0.43946,-0.55468 z m -140.04688,0.25586 c 0.26407,0.12811 0.35191,0.51162 0.0879,0.81054 -0.26407,0.34163 -0.52734,0.21388 -0.52734,-0.25586 -0.088,-0.46973 0.17538,-0.7255 0.43945,-0.55468 z m 40.49024,0.29882 c 0.17599,0 0.35364,0.81079 0.26562,1.79297 -0.088,1.70814 -0.0888,1.75092 -0.79297,0.64063 -0.7042,-1.11029 -0.3529,-2.4336 0.52735,-2.4336 z m 738.1621,0.24024 c 0.011,-0.22924 0.40805,-0.005 1.15625,0.82812 0.7042,0.68326 1.23243,1.58025 1.23243,1.92188 0,0.34163 -0.61625,-0.0441 -1.23243,-0.85547 -0.79222,-0.98218 -1.16725,-1.6653 -1.15625,-1.89453 z m 100.80082,0.48633 c 0.176,0.29892 0.176,0.89692 0,1.28125 -0.2641,0.42703 -0.4395,0.16958 -0.4395,-0.51368 0,-0.72595 0.1754,-1.02379 0.4395,-0.76757 z m -301.043,0.42578 c 0.17605,0.29892 0.17605,0.81214 0,1.06836 -0.26408,0.29892 -0.44141,0.0861 -0.44141,-0.51172 0,-0.59785 0.17733,-0.81286 0.44141,-0.55664 z m 139.63867,0.15039 c 0.0773,-0.13852 0.18828,-0.12751 0.32031,0.0644 0.17605,0.42703 0.17605,1.10981 0,1.49414 -0.26407,0.42704 -0.44141,0.0848 -0.4414,-0.72656 0,-0.40568 0.0438,-0.69352 0.12109,-0.83203 z m -277.04688,0.10742 c 0.26408,0.12811 0.35367,0.51162 0.0899,0.81055 -0.26408,0.34162 -0.5293,0.21387 -0.5293,-0.25586 -0.088,-0.46974 0.17538,-0.7255 0.43945,-0.55469 z m 575.68161,0 c 0.2641,0.12811 0.3515,0.51162 0.088,0.81055 -0.264,0.34162 -0.5273,0.21387 -0.5273,-0.25586 -0.088,-0.46974 0.1754,-0.7255 0.4394,-0.55469 z m -277.50778,0.31836 c 0.0769,-0.139 0.18633,-0.12791 0.31836,0.0645 0.17605,0.42704 0.17605,1.11177 0,1.4961 -0.26407,0.42703 -0.43945,0.0848 -0.43945,-0.72657 0,-0.40568 0.0442,-0.69498 0.12109,-0.83398 z m -600.00976,0.2793 c 0.17605,0.29892 0.17605,0.89692 0,1.28125 -0.26408,0.42703 -0.43946,0.16958 -0.43946,-0.51368 0,-0.72595 0.17538,-1.02379 0.43946,-0.76757 z m -140.04688,0.68359 c 0.26407,0.12811 0.35192,0.51162 0.0879,0.81055 -0.26407,0.34162 -0.52734,0.21387 -0.52734,-0.25586 -0.088,-0.46974 0.17538,-0.7255 0.43945,-0.55469 z m 276.48633,0 c 0.26407,0.17081 0.52748,1.10962 0.43945,2.0918 -0.26407,2.6049 -1.05664,2.56147 -1.05664,-0.0859 0,-1.2384 0.26509,-2.13397 0.61719,-2.00586 z m 740.28519,1.45117 c 0.176,0.29893 0.176,0.89692 0,1.28125 -0.2641,0.42704 -0.4395,0.16958 -0.4395,-0.51367 0,-0.72596 0.1754,-1.0238 0.4395,-0.76758 z m -573.91996,0.42774 c 0.17605,0.29892 0.17605,0.89496 0,1.27929 -0.26407,0.42704 -0.43945,0.17154 -0.43945,-0.51172 0,-0.72595 0.17538,-1.02379 0.43945,-0.76757 z m 319.44141,2.81836 c 0.26407,0.12811 0.35191,0.51162 0.0879,0.81054 -0.26407,0.34163 -0.52734,0.21388 -0.52734,-0.25586 -0.088,-0.46973 0.17538,-0.7255 0.43945,-0.55468 z m 304.78905,0.79101 c -0.1146,0.0415 -0.16,0.0486 -0.2871,0.0957 -0.2564,0.095 -0.9108,0.60707 -0.6738,0.47071 0.3916,-0.2253 0.6374,-0.374 0.9609,-0.56641 z m -736.10936,10.4336 c -0.34535,0.0886 -0.98174,0.28844 -1.53321,0.45507 0.9285,0.75637 0.94478,0.89819 1.53321,-0.45507 z m -99.1211,7.05273 c -0.49788,0.45142 -1.0124,0.89089 -1.44922,1.39258 -9.7e-4,0.0352 -0.003,0.0703 -0.004,0.10547 0.30801,-0.20397 1.19162,-0.9788 1.41211,-1.40821 0.015,-0.0293 0.0265,-0.0604 0.041,-0.0898 z"
           clip-path="url(#clipPath91257)" />
        <path
           d="m 642,2645 c 0,-16 2,-22 5,-12 2,9 2,23 0,30 -3,6 -5,-1 -5,-18 z"
           id="path90722"
           style="fill:#28a745" />
        <path
           id="path90724"
           style="fill:#28a745;stroke-width:0.0613102"
           transform="matrix(11.360466,0,0,-23.417356,-1553.8561,10972.849)"
           d="m 920.53125,267.94922 c -0.18155,0.022 -0.31407,0.25316 -0.24805,0.60547 0,0.46973 0.26523,0.59748 0.5293,0.25586 0.26407,-0.29893 0.17618,-0.68244 -0.0879,-0.81055 -0.066,-0.0427 -0.13284,-0.0581 -0.19336,-0.0508 z" />
        <path
           d="m 272,2660 c 0,-14 2,-19 5,-12 2,6 2,18 0,25 -3,6 -5,1 -5,-13 z"
           id="path90726"
           style="fill:#28a745" />
        <path
           id="path90728"
           style="fill:#28a745;stroke-width:0.0613102"
           transform="matrix(11.360466,0,0,-23.417356,-1553.8561,10972.849)"
           d="m 1095.7949,355.11719 c -0.1863,0.0129 -0.6089,0.55703 -1.2226,1.74804 -0.5282,1.06759 -0.967,2.34916 -0.8789,2.9043 0.088,0.55515 0.6161,-0.25538 1.3203,-1.75 0.7922,-1.75351 1.0266,-2.81952 0.8144,-2.89844 -0.01,-0.004 -0.021,-0.005 -0.033,-0.004 z" />
      </g>
      <text
         xml:space="preserve"
         style="font-weight:bold;font-size:50.6892px;line-height:1.25;font-family:Roboto;-inkscape-font-specification:'Roboto Bold';fill:#96242f;stroke-width:0.528012"
         x="71.878922"
         y="137.47562"
         id="text113081"
         transform="scale(1.0808997,0.92515523)"><tspan
           sodipodi:role="line"
           id="tspan113079"
           style="fill:#96242f;stroke-width:0.528012"
           x="71.878922"
           y="137.47562">D</tspan></text>
    </g>
  </g>
</svg>
