<?xml version="1.0" encoding="UTF-8" standalone="no"?>
<!-- Created with Inkscape (http://www.inkscape.org/) -->

<svg
   width="80px"
   height="20px"
   viewBox="0 0 80 20"
   version="1.1"
   id="SVGRoot"
   sodipodi:docname="drewbaccologo.svg"
   inkscape:version="1.1.2 (0a00cf5339, 2022-02-04)"
   xmlns:inkscape="http://www.inkscape.org/namespaces/inkscape"
   xmlns:sodipodi="http://sodipodi.sourceforge.net/DTD/sodipodi-0.dtd"
   xmlns="http://www.w3.org/2000/svg"
   xmlns:svg="http://www.w3.org/2000/svg">
  <sodipodi:namedview
     id="namedview22515"
     pagecolor="#ffffff"
     bordercolor="#666666"
     borderopacity="1.0"
     inkscape:pageshadow="2"
     inkscape:pageopacity="0.0"
     inkscape:pagecheckerboard="0"
     inkscape:document-units="px"
     showgrid="false"
     inkscape:zoom="2.8756734"
     inkscape:cx="265.15529"
     inkscape:cy="121.36288"
     inkscape:window-width="3840"
     inkscape:window-height="995"
     inkscape:window-x="0"
     inkscape:window-y="56"
     inkscape:window-maximized="1"
     inkscape:current-layer="layer1" />
  <defs
     id="defs22510">
    <inkscape:path-effect
       effect="skeletal"
       id="path-effect73147"
       is_visible="true"
       lpeversion="1"
       pattern="M 0,4.9921382 C 0,2.2364779 2.2364779,0 4.9921382,0 c 2.7556604,0 4.9921383,2.2364779 4.9921383,4.9921382 0,2.7556604 -2.2364779,4.9921383 -4.9921383,4.9921383 C 2.2364779,9.9842765 0,7.7477986 0,4.9921382 Z"
       copytype="single_stretched"
       prop_scale="1"
       scale_y_rel="false"
       spacing="0"
       normal_offset="0"
       tang_offset="0"
       prop_units="false"
       vertical_pattern="false"
       hide_knot="false"
       fuse_tolerance="0" />
    <inkscape:path-effect
       effect="skeletal"
       id="path-effect73110"
       is_visible="true"
       lpeversion="1"
       pattern="M 0,4.9921382 C 0,2.2364779 2.2364779,0 4.9921382,0 c 2.7556604,0 4.9921383,2.2364779 4.9921383,4.9921382 0,2.7556604 -2.2364779,4.9921383 -4.9921383,4.9921383 C 2.2364779,9.9842765 0,7.7477986 0,4.9921382 Z"
       copytype="single_stretched"
       prop_scale="1"
       scale_y_rel="false"
       spacing="0"
       normal_offset="0"
       tang_offset="0"
       prop_units="false"
       vertical_pattern="false"
       hide_knot="false"
       fuse_tolerance="0" />
    <inkscape:path-effect
       effect="skeletal"
       id="path-effect73106"
       is_visible="true"
       lpeversion="1"
       pattern="M 0,4.9921382 C 0,2.2364779 2.2364779,0 4.9921382,0 c 2.7556604,0 4.9921383,2.2364779 4.9921383,4.9921382 0,2.7556604 -2.2364779,4.9921383 -4.9921383,4.9921383 C 2.2364779,9.9842765 0,7.7477986 0,4.9921382 Z"
       copytype="single_stretched"
       prop_scale="1"
       scale_y_rel="false"
       spacing="0"
       normal_offset="0"
       tang_offset="0"
       prop_units="false"
       vertical_pattern="false"
       hide_knot="false"
       fuse_tolerance="0" />
    <inkscape:path-effect
       effect="skeletal"
       id="path-effect68876"
       is_visible="true"
       lpeversion="1"
       pattern="M 0,4.9921382 C 0,2.2364779 2.2364779,0 4.9921382,0 c 2.7556604,0 4.9921383,2.2364779 4.9921383,4.9921382 0,2.7556604 -2.2364779,4.9921383 -4.9921383,4.9921383 C 2.2364779,9.9842765 0,7.7477986 0,4.9921382 Z"
       copytype="single_stretched"
       prop_scale="1"
       scale_y_rel="false"
       spacing="0"
       normal_offset="0"
       tang_offset="0"
       prop_units="false"
       vertical_pattern="false"
       hide_knot="false"
       fuse_tolerance="0" />
    <inkscape:path-effect
       effect="skeletal"
       id="path-effect50140"
       is_visible="true"
       lpeversion="1"
       pattern="M 0,4.9921382 C 0,2.2364779 2.2364779,0 4.9921382,0 c 2.7556604,0 4.9921383,2.2364779 4.9921383,4.9921382 0,2.7556604 -2.2364779,4.9921383 -4.9921383,4.9921383 C 2.2364779,9.9842765 0,7.7477986 0,4.9921382 Z"
       copytype="single_stretched"
       prop_scale="1"
       scale_y_rel="false"
       spacing="0"
       normal_offset="0"
       tang_offset="0"
       prop_units="false"
       vertical_pattern="false"
       hide_knot="false"
       fuse_tolerance="0" />
    <inkscape:path-effect
       effect="skeletal"
       id="path-effect49415"
       is_visible="true"
       lpeversion="1"
       pattern="M 0,4.9921382 C 0,2.2364779 2.2364779,0 4.9921382,0 c 2.7556604,0 4.9921383,2.2364779 4.9921383,4.9921382 0,2.7556604 -2.2364779,4.9921383 -4.9921383,4.9921383 C 2.2364779,9.9842765 0,7.7477986 0,4.9921382 Z"
       copytype="single_stretched"
       prop_scale="1"
       scale_y_rel="false"
       spacing="0"
       normal_offset="0"
       tang_offset="0"
       prop_units="false"
       vertical_pattern="false"
       hide_knot="false"
       fuse_tolerance="0" />
    <inkscape:path-effect
       effect="skeletal"
       id="path-effect49378"
       is_visible="true"
       lpeversion="1"
       pattern="M 0,4.9921382 C 0,2.2364779 2.2364779,0 4.9921382,0 c 2.7556604,0 4.9921383,2.2364779 4.9921383,4.9921382 0,2.7556604 -2.2364779,4.9921383 -4.9921383,4.9921383 C 2.2364779,9.9842765 0,7.7477986 0,4.9921382 Z"
       copytype="single_stretched"
       prop_scale="1"
       scale_y_rel="false"
       spacing="0"
       normal_offset="0"
       tang_offset="0"
       prop_units="false"
       vertical_pattern="false"
       hide_knot="false"
       fuse_tolerance="0" />
    <inkscape:path-effect
       effect="powerstroke"
       id="path-effect48923"
       is_visible="true"
       lpeversion="1"
       offset_points="2.0838814,5.1626235"
       not_jump="true"
       sort_points="true"
       interpolator_type="CentripetalCatmullRom"
       interpolator_beta="0.75"
       start_linecap_type="round"
       linejoin_type="spiro"
       miter_limit="4"
       scale_width="1"
       end_linecap_type="round" />
    <inkscape:path-effect
       effect="simplify"
       id="path-effect48921"
       is_visible="true"
       lpeversion="1"
       steps="1"
       threshold="0.0032025118"
       smooth_angles="0"
       helper_size="0"
       simplify_individual_paths="false"
       simplify_just_coalesce="false"
       step="1" />
    <inkscape:path-effect
       effect="spiro"
       id="path-effect48560"
       is_visible="true"
       lpeversion="1" />
    <inkscape:path-effect
       effect="spiro"
       id="path-effect48556"
       is_visible="true"
       lpeversion="1" />
    <inkscape:path-effect
       effect="bspline"
       id="path-effect48519"
       is_visible="true"
       lpeversion="1"
       weight="33.333333"
       steps="2"
       helper_size="0"
       apply_no_weight="true"
       apply_with_weight="true"
       only_selected="false" />
    <inkscape:path-effect
       effect="bspline"
       id="path-effect48482"
       is_visible="true"
       lpeversion="1"
       weight="33.333333"
       steps="2"
       helper_size="0"
       apply_no_weight="true"
       apply_with_weight="true"
       only_selected="false" />
    <inkscape:path-effect
       effect="bspline"
       id="path-effect48445"
       is_visible="true"
       lpeversion="1"
       weight="33.333333"
       steps="2"
       helper_size="0"
       apply_no_weight="true"
       apply_with_weight="true"
       only_selected="false" />
    <inkscape:path-effect
       effect="skeletal"
       id="path-effect32136"
       is_visible="true"
       lpeversion="1"
       pattern="M 0,4.9921382 C 0,2.2364779 2.2364779,0 4.9921382,0 c 2.7556604,0 4.9921383,2.2364779 4.9921383,4.9921382 0,2.7556604 -2.2364779,4.9921383 -4.9921383,4.9921383 C 2.2364779,9.9842765 0,7.7477986 0,4.9921382 Z"
       copytype="single_stretched"
       prop_scale="1"
       scale_y_rel="false"
       spacing="0"
       normal_offset="0"
       tang_offset="0"
       prop_units="false"
       vertical_pattern="false"
       hide_knot="false"
       fuse_tolerance="0" />
    <inkscape:perspective
       sodipodi:type="inkscape:persp3d"
       inkscape:vp_x="0 : 148.5 : 1"
       inkscape:vp_y="0 : 1000 : 0"
       inkscape:vp_z="210 : 148.5 : 1"
       inkscape:persp3d-origin="105 : 99 : 1"
       id="perspective4901" />
    <inkscape:path-effect
       effect="skeletal"
       id="path-effect1196"
       is_visible="true"
       lpeversion="1"
       pattern="M 0,4.9921382 C 0,2.2364779 2.2364779,0 4.9921382,0 c 2.7556604,0 4.9921383,2.2364779 4.9921383,4.9921382 0,2.7556604 -2.2364779,4.9921383 -4.9921383,4.9921383 C 2.2364779,9.9842765 0,7.7477986 0,4.9921382 Z"
       copytype="single_stretched"
       prop_scale="1"
       scale_y_rel="false"
       spacing="0"
       normal_offset="0"
       tang_offset="0"
       prop_units="false"
       vertical_pattern="false"
       hide_knot="false"
       fuse_tolerance="0" />
    <inkscape:path-effect
       effect="powerstroke"
       id="path-effect1159"
       is_visible="true"
       lpeversion="1"
       offset_points="0,4.99214"
       not_jump="false"
       sort_points="true"
       interpolator_type="CubicBezierJohan"
       interpolator_beta="0.2"
       start_linecap_type="zerowidth"
       linejoin_type="extrp_arc"
       miter_limit="4"
       scale_width="1"
       end_linecap_type="zerowidth" />
    <inkscape:path-effect
       effect="spiro"
       id="path-effect1087"
       is_visible="true"
       lpeversion="1" />
    <inkscape:path-effect
       effect="bspline"
       id="path-effect1050"
       is_visible="true"
       lpeversion="1"
       weight="33.333333"
       steps="2"
       helper_size="0"
       apply_no_weight="true"
       apply_with_weight="true"
       only_selected="false" />
  </defs>
  <g
     inkscape:label="Layer 1"
     inkscape:groupmode="layer"
     id="layer1">
    <g
       id="g142"
       transform="matrix(0.47074079,0,0,0.35312143,-6.958366,-40.160968)">
      <g
         id="layer4"
         inkscape:label="Layer 4">
        <g
           transform="matrix(0.01329316,0,0,-0.00661543,14.860525,153.29229)"
           fill="#000000"
           stroke="none"
           id="g90366"
           style="fill:#96242f">
          <path
             d="M 157,5107 -1,4235 24,3255 C 38,2716 54,2115 60,1920 75,1397 84,704 75,712 71,716 65,734 61,752 56,772 51,712 46,597 42,494 42,405 45,400 c 4,-7 2161,-10 6381,-10 h 6374 v 166 c 0,134 -3,168 -15,180 -13,14 -15,11 -15,-22 0,-21 -2,-35 -4,-33 -12,12 -36,669 -37,1019 -2,474 -14,1144 -18,1008 -2,-54 -5,-102 -6,-108 -1,-5 -4,-43 -5,-82 -3,-64 -4,-56 -12,57 -5,72 -6,213 -3,315 5,158 59,1131 96,1730 6,102 10,193 8,203 -2,10 -44,-205 -94,-478 -49,-273 -91,-492 -93,-486 -2,5 -30,191 -62,413 -32,222 -59,392 -59,378 -1,-14 11,-288 25,-609 l 27,-584 -27,-151 c -24,-135 -26,-176 -27,-386 v -235 l -36,75 c -34,69 -37,83 -41,180 -2,58 6,350 17,650 36,933 60,1579 66,1740 l 5,155 -159,-784 -158,-784 4,-226 c 5,-207 3,-232 -16,-300 -11,-41 -22,-75 -24,-77 -2,-2 -12,11 -21,28 -17,32 -16,61 23,738 23,388 44,725 47,750 3,25 3,42 0,39 -3,-3 -55,-279 -116,-615 -129,-714 -120,-665 -129,-660 -4,3 -6,-7 -3,-22 2,-15 -13,-114 -32,-221 -24,-130 -36,-225 -36,-285 v -91 l -46,80 c -26,44 -64,108 -85,143 -36,58 -39,69 -39,135 0,60 15,242 45,552 l 5,50 -31,-64 c -16,-35 -31,-62 -32,-60 -2,2 2,121 8,264 l 10,260 55,5 55,5 -68,28 c -37,15 -71,27 -76,27 -5,0 -19,-68 -32,-151 -13,-83 -25,-145 -27,-139 -3,7 -24,144 -48,304 -29,191 -42,262 -39,206 2,-47 12,-258 21,-470 15,-372 15,-389 -3,-505 l -19,-120 -27,40 c -32,47 -33,45 -7,-30 25,-72 25,-72 -2,-223 l -21,-123 -20,31 c -19,31 -19,40 -7,533 l 12,502 -157,860 c -86,473 -159,862 -161,865 -3,2 -2,-36 1,-85 3,-50 10,-225 15,-390 29,-886 50,-1481 55,-1565 14,-248 7,-376 -30,-580 -27,-150 -35,-222 -35,-311 v -115 l -50,-120 c -29,-68 -48,-104 -45,-84 3,19 16,145 30,280 14,135 35,305 45,378 11,74 20,137 19,140 -1,8 -55,-190 -125,-458 -26,-96 -70,-281 -100,-410 l -53,-235 -3,370 c -3,336 -5,384 -27,518 l -25,148 22,66 c 12,37 20,68 18,70 -2,2 -14,-13 -27,-33 -12,-21 -24,-33 -25,-28 -2,5 -33,200 -70,434 -37,234 -68,427 -70,429 -4,5 -126,-39 -138,-51 -6,-4 12,-8 41,-8 h 51 l 5,-42 c 4,-24 9,-144 12,-268 l 6,-225 -30,65 c -35,76 -36,74 -16,-130 8,-85 21,-222 29,-305 l 13,-150 -46,-76 -47,-77 -38,84 c -21,47 -41,83 -43,80 -2,-2 6,-58 17,-124 16,-87 19,-125 12,-139 -10,-16 -12,-16 -21,10 -6,16 -11,49 -11,75 0,25 -18,139 -39,252 -51,266 -92,490 -186,1010 -80,451 -97,531 -89,420 2,-36 20,-339 39,-675 19,-335 36,-631 38,-658 4,-42 -1,-54 -40,-115 l -45,-67 6,240 c 4,132 7,278 7,325 1,71 -24,211 -150,840 -82,415 -152,764 -155,775 -6,23 -2,-180 15,-665 l 12,-345 -57,-389 c -31,-214 -57,-391 -59,-392 -2,-2 -52,265 -111,594 -59,328 -110,599 -113,602 -2,3 -2,-22 1,-55 4,-33 20,-298 36,-590 17,-291 35,-597 40,-678 14,-215 13,-226 -15,-132 -49,166 -190,533 -200,523 -2,-2 3,-59 10,-128 8,-69 26,-259 41,-422 27,-297 27,-297 7,-328 l -20,-31 -23,88 c -13,48 -33,124 -45,168 -13,44 -31,113 -40,153 -10,40 -20,71 -22,68 -2,-2 5,-68 16,-147 11,-79 28,-212 36,-296 16,-146 16,-152 -3,-188 l -18,-37 -19,48 c -15,38 -18,71 -16,149 2,88 -8,158 -84,585 -48,267 -92,515 -99,551 l -12,66 42,54 c 24,29 42,55 40,57 -2,2 -31,0 -65,-4 -60,-6 -61,-7 -61,-38 0,-17 7,-231 16,-476 l 17,-445 -75,-120 c -41,-66 -88,-144 -104,-172 -16,-29 -32,-53 -35,-53 -4,0 -13,17 -21,38 -17,43 -18,-16 22,858 17,353 30,662 29,685 -1,24 -37,-199 -80,-496 -84,-571 -83,-562 -109,-1190 -10,-234 -16,-302 -31,-350 -14,-43 -18,-49 -14,-22 4,21 9,45 11,52 4,10 0,12 -15,8 -16,-4 -21,0 -22,13 -3,42 -18,-76 -18,-145 -1,-41 -3,-72 -6,-69 -5,5 16,843 35,1353 13,362 48,1358 60,1730 5,165 12,340 15,390 3,49 4,87 1,85 -2,-3 -48,-247 -102,-544 -54,-296 -99,-535 -101,-530 -1,5 -45,245 -98,533 -52,288 -97,526 -100,529 -2,3 -2,-31 0,-74 3,-43 12,-281 20,-529 9,-247 24,-706 35,-1020 48,-1372 64,-1924 56,-1932 -3,-4 -6,32 -6,78 0,103 -7,129 -31,129 -11,0 -19,7 -19,17 0,9 -3,14 -6,10 -3,-3 2,-40 11,-82 10,-42 15,-78 13,-80 -2,-3 -14,39 -25,93 -17,74 -24,162 -33,372 -25,599 -26,608 -108,1177 -43,298 -80,545 -83,547 -3,3 -4,-9 -2,-27 2,-18 17,-333 33,-702 17,-368 32,-706 34,-750 3,-75 -13,-155 -33,-155 -3,0 -28,39 -55,88 -28,48 -75,125 -105,171 l -54,84 18,474 c 10,260 16,475 14,477 -2,2 -33,7 -69,11 l -64,7 27,-33 c 66,-82 64,-64 34,-238 -15,-86 -59,-334 -98,-551 -64,-357 -70,-404 -66,-494 4,-86 1,-107 -17,-149 l -22,-49 -18,39 c -16,37 -16,47 -1,188 9,83 25,215 36,294 11,79 18,145 17,147 -2,2 -12,-27 -22,-64 -9,-37 -38,-145 -63,-240 l -46,-173 -20,31 -20,31 32,352 c 18,194 36,383 41,422 5,38 7,71 6,73 -10,10 -133,-306 -192,-493 l -35,-110 6,105 c 11,208 74,1306 79,1370 4,58 4,61 -5,25 -6,-22 -56,-294 -113,-605 -76,-416 -104,-556 -109,-530 -3,19 -30,199 -58,400 l -52,365 17,485 c 9,267 19,501 22,520 15,119 -32,-99 -167,-780 l -151,-765 6,-320 7,-320 -42,65 c -51,78 -51,-29 1,855 21,363 38,661 37,662 -2,1 -58,-303 -126,-675 -68,-372 -137,-744 -153,-827 -16,-82 -32,-190 -37,-238 -9,-92 -25,-130 -36,-85 -3,13 3,75 15,137 12,62 20,115 17,117 -2,2 -22,-33 -43,-80 l -38,-84 -47,77 -46,76 13,150 c 8,83 21,220 29,305 20,204 19,206 -16,130 l -30,-65 6,220 c 3,121 8,241 11,268 l 6,47 h 51 c 29,0 47,4 42,8 -13,11 -135,56 -139,51 -1,-2 -33,-195 -70,-429 -37,-234 -68,-429 -70,-434 -1,-5 -13,7 -25,28 -13,20 -25,35 -27,33 -2,-2 6,-33 18,-70 l 22,-67 -24,-148 c -22,-127 -26,-190 -30,-457 -4,-268 -7,-304 -17,-265 l -12,45 5,-50 c 3,-27 9,-52 12,-55 4,-3 8,-30 9,-60 1,-30 -1,-44 -3,-30 -39,209 -253,1064 -271,1080 -3,3 -3,-6 0,-20 10,-43 46,-326 67,-530 11,-107 22,-213 25,-235 4,-29 -8,-9 -45,79 l -50,120 v 116 c 0,91 -8,160 -36,311 -42,229 -41,185 -14,974 11,314 27,768 35,1010 8,242 16,485 19,540 3,55 3,96 1,90 -3,-5 -75,-397 -161,-870 l -156,-860 12,-497 12,-497 -21,-33 c -11,-18 -21,-28 -21,-22 0,6 -9,67 -21,135 -22,129 -21,140 16,254 4,11 -3,5 -15,-12 -12,-18 -25,-33 -29,-33 -4,0 -16,56 -26,125 -17,121 -17,135 4,571 11,246 20,449 18,450 -2,2 -20,-117 -41,-264 -50,-364 -45,-352 -73,-178 -13,82 -25,151 -28,154 -5,6 -126,-37 -140,-50 -5,-4 16,-8 47,-8 h 55 l 7,-232 c 4,-128 9,-251 12,-273 4,-38 3,-36 -30,30 -38,78 -40,76 -26,-45 22,-196 40,-415 40,-484 0,-72 -2,-77 -54,-162 -29,-49 -67,-114 -84,-144 l -32,-55 v 91 c 0,60 -12,156 -36,285 -19,107 -34,206 -32,221 3,15 1,25 -4,22 -4,-3 -8,-4 -8,-2 0,21 -230,1261 -235,1266 -3,3 -3,-12 0,-33 3,-22 24,-358 46,-748 40,-701 41,-708 22,-738 l -20,-30 -22,78 c -21,72 -22,93 -20,318 l 2,240 -151,755 c -83,415 -153,764 -155,775 -9,38 -7,-62 8,-435 8,-206 24,-618 35,-915 11,-297 25,-646 30,-775 6,-129 10,-293 10,-364 0,-125 -1,-130 -35,-206 -19,-43 -35,-82 -35,-88 0,-6 -3,-13 -7,-15 -5,-3 -7,101 -5,231 3,221 2,247 -24,393 l -27,156 27,579 c 14,318 26,593 25,609 0,17 -27,-152 -59,-373 -33,-222 -60,-408 -62,-414 -2,-5 -23,99 -47,232 l -44,243 12,211 c 6,116 14,238 16,271 7,88 -8,34 -35,-132 -13,-78 -26,-140 -28,-138 -3,3 -17,71 -32,152 -33,175 -36,149 -16,-157 l 13,-195 -44,-244 c -24,-135 -45,-246 -47,-248 -1,-2 -29,185 -62,414 -32,230 -60,407 -61,393 -2,-14 10,-290 25,-615 l 28,-590 -29,-155 c -27,-149 -28,-164 -24,-395 2,-166 1,-232 -6,-215 -6,14 -26,59 -44,100 -39,86 -39,83 -22,495 11,287 44,1169 64,1705 8,223 17,430 19,460 9,107 -13,4 -165,-760 l -151,-765 4,-225 c 4,-198 2,-233 -14,-295 -29,-106 -27,-103 -48,-67 -19,31 -19,36 10,539 17,279 37,616 45,747 8,132 13,241 12,242 -1,2 -54,-281 -117,-629 -63,-348 -117,-634 -121,-637 -3,-3 -6,-18 -6,-35 0,-16 -17,-120 -37,-230 -28,-148 -36,-220 -34,-278 2,-42 1,-77 -2,-77 -3,0 -18,26 -35,57 -16,32 -53,97 -82,144 -63,104 -63,100 -33,409 11,113 22,237 25,275 l 6,70 -31,-65 -31,-65 6,210 c 3,116 8,236 11,268 l 6,57 h 51 c 29,0 47,4 42,8 -13,12 -135,56 -139,51 -2,-2 -14,-71 -26,-154 -13,-82 -25,-145 -26,-140 -2,6 -22,138 -44,295 -22,157 -43,290 -45,295 -2,6 -2,-26 1,-70 11,-182 34,-713 34,-796 0,-72 -20,-248 -33,-293 -2,-5 -14,7 -26,28 -13,20 -25,36 -26,34 -2,-2 6,-30 17,-63 19,-55 20,-68 10,-151 -7,-50 -17,-115 -23,-143 l -11,-53 -19,31 c -19,31 -19,46 -6,524 l 13,492 -158,865 -158,865 5,-205 c 5,-197 29,-911 60,-1760 l 14,-405 -39,-223 c -31,-172 -40,-249 -40,-335 0,-111 -1,-114 -45,-217 -24,-58 -45,-96 -45,-85 0,37 51,501 70,634 11,74 18,136 16,138 -4,4 -155,-569 -195,-737 -16,-69 -34,-143 -40,-165 l -11,-40 4,41 c 2,23 -1,48 -6,55 -6,9 -8,-11 -5,-61 2,-41 1,-88 -3,-105 -3,-16 -9,123 -13,310 -7,297 -11,360 -34,498 l -26,157 22,63 c 26,79 26,91 0,50 -12,-18 -24,-33 -28,-33 -3,0 -37,192 -74,427 -37,234 -69,429 -72,431 -3,3 -38,-8 -77,-24 l -73,-29 56,-3 56,-3 7,-227 c 4,-125 9,-247 12,-272 l 5,-45 -35,70 c -39,80 -39,80 -26,-35 5,-47 18,-190 29,-318 l 21,-232 -43,-70 c -23,-38 -45,-70 -48,-70 -3,0 -23,36 -44,80 -20,45 -39,79 -41,77 -2,-2 6,-53 17,-115 13,-65 18,-123 14,-139 l -7,-28 -15,29 c -9,17 -13,40 -9,57 3,15 -10,108 -29,205 -19,97 -44,229 -55,293 -63,354 -227,1241 -231,1245 -2,3 -3,-12 -1,-32 1,-20 20,-342 42,-715 l 39,-677 -41,-65 c -22,-36 -42,-64 -45,-62 -2,2 1,143 6,312 l 9,308 -158,791 c -88,435 -159,773 -159,751 -1,-22 6,-202 14,-400 24,-614 26,-552 -35,-987 -30,-214 -57,-388 -60,-388 -3,0 -53,262 -112,583 -98,528 -107,572 -103,472 6,-135 73,-1317 78,-1362 5,-51 -7,-27 -37,77 -43,149 -172,479 -186,480 -3,0 0,-48 6,-107 7,-59 25,-246 40,-415 28,-301 28,-308 10,-345 -10,-21 -20,-33 -22,-28 -4,10 -33,120 -96,362 -17,68 -33,121 -35,120 -1,-2 8,-82 21,-178 13,-96 30,-232 37,-302 12,-120 11,-131 -6,-163 l -18,-34 -19,41 c -14,32 -18,66 -18,156 0,102 -12,181 -96,660 l -97,544 43,50 c 23,28 40,52 37,55 -3,3 -32,2 -66,-2 l -61,-7 1,-41 c 0,-22 8,-237 18,-476 l 18,-435 -55,-85 c -30,-47 -78,-126 -107,-177 l -52,-92 -16,35 c -11,23 -17,60 -17,110 0,70 37,900 60,1328 5,104 8,191 7,193 -2,1 -41,-257 -86,-575 -68,-478 -84,-612 -91,-782 -5,-113 -15,-315 -21,-450 -8,-185 -15,-262 -30,-315 -12,-43 -17,-55 -14,-30 3,22 8,50 11,62 5,18 3,21 -14,16 -17,-4 -21,1 -24,24 -2,15 -8,-27 -12,-95 -5,-67 -10,-121 -12,-119 -2,2 1,149 6,328 25,777 79,2377 100,2938 6,151 9,275 8,277 -2,1 -74,-390 -161,-869 z M 7190,3850 c 5,-129 13,-300 16,-380 10,-241 10,-753 0,-728 -5,13 -25,57 -43,98 l -34,75 11,310 c 6,170 15,416 20,545 6,129 11,262 11,295 3,95 7,38 19,-215 z m 2699,-35 c 6,-165 16,-435 22,-600 l 10,-300 -34,-75 c -18,-41 -38,-85 -43,-98 -12,-30 -9,505 5,833 20,469 24,545 26,543 2,-2 8,-138 14,-303 z m -8405,-64 c 4,-130 9,-267 11,-306 2,-38 7,-173 11,-300 l 6,-230 -35,-80 c -19,-44 -37,-87 -40,-95 -11,-27 0,777 14,1075 15,329 23,315 33,-64 z m 2876,-706 c 9,-185 5,-604 -6,-592 -2,1 -4,45 -5,97 -1,52 -6,106 -10,120 -4,14 -8,-117 -10,-290 l -3,-315 -6,275 c -6,254 -10,314 -25,328 -3,3 -6,-42 -7,-99 -1,-96 -2,-92 -9,56 -7,152 -3,312 21,760 21,387 23,374 60,-340 z m 2570,-235 c 5,-91 8,-219 7,-285 l -1,-120 -5,105 -6,105 -64,5 -64,5 6,-75 c 4,-61 3,-68 -4,-35 -9,36 5,388 28,725 l 6,94 44,-179 c 38,-156 45,-202 53,-345 z m 3311,127 c 15,-270 19,-397 12,-420 -8,-26 -9,-19 -5,35 l 5,66 -62,4 c -33,1 -62,3 -62,3 -1,0 -5,-47 -9,-105 -5,-65 -6,-9 -3,150 5,254 5,256 45,425 21,94 42,185 45,203 3,18 7,31 9,29 2,-2 13,-177 25,-390 z m -8406,-17 c 9,-190 15,-358 13,-375 -3,-16 -6,4 -8,45 -1,41 -5,65 -7,53 -4,-20 -11,-23 -53,-23 -38,0 -49,4 -53,18 -2,9 -7,-28 -11,-83 -12,-166 -14,-142 -9,110 5,228 7,248 40,395 19,85 39,179 46,208 11,49 12,52 18,25 4,-15 15,-183 24,-373 z M 692,2840 c 3,-173 2,-286 -1,-250 -4,36 -8,57 -9,48 -1,-10 -9,-18 -17,-18 -19,0 -19,-7 0,-60 8,-24 13,-45 11,-47 -2,-2 -14,25 -26,62 -20,61 -21,73 -11,183 6,64 14,140 17,167 12,91 -7,39 -32,-87 -13,-67 -24,-125 -25,-128 0,-3 -6,11 -14,31 -12,33 -9,55 39,273 62,285 61,287 68,-174 z m 7327,171 c 48,-216 51,-237 38,-269 -14,-34 -14,-33 -37,92 -13,69 -28,126 -33,126 -5,0 -7,-10 -3,-22 3,-13 11,-86 17,-163 12,-135 12,-142 -10,-208 -13,-38 -25,-66 -27,-64 -2,2 5,32 17,66 11,35 18,68 15,74 -2,7 -5,4 -5,-5 -1,-11 -9,-18 -21,-18 -20,0 -21,-5 -19,-85 2,-46 -1,-88 -5,-92 -6,-6 0,394 9,602 2,33 3,93 4,134 1,41 3,72 5,70 2,-2 27,-109 55,-238 z m 1075,64 c 10,-305 14,-572 7,-495 -4,41 -8,67 -9,58 -3,-30 -32,-21 -33,10 -1,15 -3,20 -6,10 -2,-9 3,-40 11,-69 9,-29 14,-54 12,-57 -3,-2 -12,22 -22,52 -16,52 -17,69 -5,199 7,78 14,153 17,167 4,19 3,21 -4,10 -6,-8 -20,-68 -33,-133 -22,-118 -22,-119 -36,-85 -13,31 -10,50 38,271 29,130 53,236 55,235 1,-2 5,-79 8,-173 z m -5413,-40 -9,-60 -1,70 c -1,45 2,66 9,59 6,-6 7,-31 1,-69 z m 1286,-7 c -2,-18 -4,-6 -4,27 0,33 2,48 4,33 2,-15 2,-42 0,-60 z m 7120,0 c -2,-18 -4,-6 -4,27 0,33 2,48 4,33 2,-15 2,-42 0,-60 z m -13,-438 c -6,-69 -9,-79 -14,-52 -4,18 -2,126 4,240 l 11,207 3,-155 c 2,-85 0,-193 -4,-240 z m -7085,159 c 5,-103 6,-200 2,-215 -7,-26 -8,-23 -14,26 -7,55 -8,418 -1,390 2,-8 8,-99 13,-201 z m -2739,159 c -1,-34 -3,-39 -11,-26 -8,15 -3,68 7,68 2,0 4,-19 4,-42 z m 1411,-351 c -8,-27 -9,-21 -10,43 -1,41 2,134 7,205 l 7,130 3,-173 c 1,-95 -2,-187 -7,-205 z m 2740,322 c -9,-23 -10,-23 -10,-2 -1,12 2,30 6,40 6,15 8,15 11,2 1,-8 -2,-26 -7,-40 z m 4258,14 c 0,-31 -2,-34 -9,-18 -12,28 -12,55 0,55 6,0 10,-17 9,-37 z M 3026,2741 c -15,-36 -15,-35 -15,54 l 1,90 14,-54 c 13,-47 13,-58 0,-90 z m 2604,57 c -1,-75 -2,-80 -13,-54 -9,21 -10,43 -3,82 6,30 12,54 13,54 2,0 3,-37 3,-82 z m 5802,-51 c -8,-27 -10,-20 -10,53 l 1,85 10,-53 c 7,-36 7,-62 -1,-85 z M 3374,2480 c -7,-19 -54,164 -53,205 0,17 13,-16 30,-80 16,-60 26,-117 23,-125 z m 1923,71 c -14,-51 -27,-89 -31,-83 -3,6 6,61 21,124 19,75 29,103 31,83 1,-17 -8,-72 -21,-124 z m 6482,-80 c -8,-13 -9,-13 -8,4 1,11 0,27 -3,35 -21,60 -38,132 -37,161 0,23 10,-2 29,-75 20,-77 26,-114 19,-125 z m -3122,12 c -3,-10 -5,-4 -5,12 0,17 2,24 5,18 2,-7 2,-21 0,-30 z m -6820,-5 c -3,-7 -5,-2 -5,12 0,14 2,19 5,13 2,-7 2,-19 0,-25 z m -1590,0 c -3,-8 -6,-5 -6,6 -1,11 2,17 5,13 3,-3 4,-12 1,-19 z m 462,-30 c -1,-40 -1,-41 -9,-15 -8,26 -4,57 6,57 2,0 4,-19 3,-42 z m 8410,-28 c 0,-8 -7,1 -14,20 -18,46 -17,64 0,25 8,-16 14,-37 14,-45 z m 1118,23 c -3,-10 -5,-4 -5,12 0,17 2,24 5,18 2,-7 2,-21 0,-30 z m -3420,-5 c -3,-7 -5,-2 -5,12 0,14 2,19 5,13 2,-7 2,-19 0,-25 z m 1590,-15 c -3,-10 -5,-2 -5,17 0,19 2,27 5,18 2,-10 2,-26 0,-35 z m -3150,15 c -3,-8 -6,-5 -6,6 -1,11 2,17 5,13 3,-3 4,-12 1,-19 z m 3390,-25 c -3,-10 -5,-2 -5,17 0,19 2,27 5,18 2,-10 2,-26 0,-35 z m 3150,25 c -3,-8 -6,-5 -6,6 -1,11 2,17 5,13 3,-3 4,-12 1,-19 z m -9970,-25 c -3,-10 -5,-4 -5,12 0,17 2,24 5,18 2,-7 2,-21 0,-30 z m -1590,-5 c -3,-8 -6,-5 -6,6 -1,11 2,17 5,13 3,-3 4,-12 1,-19 z m 3145,-30 c -3,-61 -12,-60 -12,2 0,29 3,50 7,47 3,-4 6,-26 5,-49 z m 4555,30 c -3,-8 -6,-5 -6,6 -1,11 2,17 5,13 3,-3 4,-12 1,-19 z m 3850,-45 c -3,-10 -5,-4 -5,12 0,17 2,24 5,18 2,-7 2,-21 0,-30 z m -6520,-10 c -3,-10 -5,-4 -5,12 0,17 2,24 5,18 2,-7 2,-21 0,-30 z m 2890,-55 c -3,-7 -5,-2 -5,12 0,14 2,19 5,13 2,-7 2,-19 0,-25 z m 740,0 c -3,-8 -6,-5 -6,6 -1,11 2,17 5,13 3,-3 4,-12 1,-19 z"
             id="path90356"
             style="fill:#96242f" />
          <path
             d="m 642,2645 c 0,-16 2,-22 5,-12 2,9 2,23 0,30 -3,6 -5,-1 -5,-18 z"
             id="path90358"
             style="fill:#96242f" />
          <path
             d="m 8901,4684 c 0,-11 3,-14 6,-6 3,7 2,16 -1,19 -3,4 -6,-2 -5,-13 z"
             id="path90360"
             style="fill:#96242f" />
          <path
             d="m 272,2660 c 0,-14 2,-19 5,-12 2,6 2,18 0,25 -3,6 -5,1 -5,-13 z"
             id="path90362"
             style="fill:#96242f" />
          <path
             d="m 10881,2616 c -6,-25 -11,-55 -10,-68 1,-13 7,6 15,41 16,73 12,95 -5,27 z"
             id="path90364"
             style="fill:#96242f" />
        </g>
      </g>
      <g
         inkscape:label="Layer 1"
         id="layer1-5">
        <path
           style="fill:#000000;stroke:none;stroke-width:1px;stroke-linecap:butt;stroke-linejoin:miter;stroke-opacity:1"
           d="m 145.63951,551.66961 502.61152,0.18"
           id="path48916" />
        <path
           style="fill:#000000;stroke:none;stroke-width:1px;stroke-linecap:butt;stroke-linejoin:miter;stroke-opacity:1"
           d="M 372.62388,429.79955 493.24837,386.13901"
           id="path48918" />
        <ellipse
           style="fill:#96242f;stroke-width:0.275775"
           id="path88992"
           cx="100.13948"
           cy="149.78493"
           rx="84.5308"
           ry="20.349119" />
        <ellipse
           style="fill:#ffffff;stroke-width:0.264583"
           id="path89865"
           cx="99.997108"
           cy="149.95062"
           rx="82.846977"
           ry="18.921856" />
        <ellipse
           style="fill:#96242f;stroke-width:0.264583"
           id="path90115"
           cx="100.10775"
           cy="150.06842"
           rx="81.514961"
           ry="17.471748" />
        <text
           xml:space="preserve"
           style="font-weight:bold;font-size:14.1894px;line-height:1.25;font-family:Roboto;-inkscape-font-specification:'Roboto Bold';fill:#ffffff;stroke-width:0.266052"
           x="23.957247"
           y="156.40125"
           id="text81856"
           transform="matrix(1.0055512,-0.0117229,0.0346513,0.99407549,0,0)"><tspan
             sodipodi:role="line"
             id="tspan81854"
             style="font-size:14.1894px;fill:#ffffff;stroke-width:0.266052"
             x="23.957247"
             y="156.40125">Drewbacco Lawn Care</tspan></text>
      </g>
      <g
         id="layer3"
         inkscape:label="Layer 3" />
      <g
         id="layer2"
         inkscape:label="Layer 2" />
    </g>
  </g>
</svg>
